<svg xmlns="http://www.w3.org/2000/svg" version="1.1" xmlns:xlink="http://www.w3.org/1999/xlink" width="512" height="512" x="0" y="0" viewBox="0 0 256 300" style="enable-background:new 0 0 512 512" xml:space="preserve"><g><g fill="#787878"><path d="M197.47 248.38c-.14-.27-14.02-27.33-8.4-66.74 1.42-9.9 3.07-18.38 4.53-25.86 4.41-22.61 6.99-36.74-5.01-51.41-4.26-15.44-15.14-34.04-24.03-46.41-11.63-16.2-25.56-11.59-25.41-11.57-11.96 1.76-32.1 8.79-35.45 9.97-4.14.52-12.18 2.18-15.87 7.47-3 4.28-13.04 15.12-16.47 18.79-4.35-.08-7.45 1.65-8.58 2.46-1.42.78-3.13 2.25-4.07 5.05-3.82 11.49 10.19 38.99 13.08 44.48.28.49 27.56 49.35 34.01 71.68 2.57 8.93 7.98 14.54 13.29 18.05l2.94 26.32a3.982 3.982 0 0 0 3.96 3.55c.15 0 .3 0 .45-.02 2.19-.25 3.78-2.22 3.53-4.41l-2.37-21.26c2.93 1.02 5.03 1.36 5.29 1.39.2.03.4.04.6.04 1.94 0 3.65-1.42 3.94-3.4a3.99 3.99 0 0 0-3.36-4.54c-.16-.03-16.17-2.59-20.59-17.94-6.69-23.22-33.57-71.35-34.66-73.3-6.42-12.17-14.55-32.04-12.19-38.7.31-.15.59-.33.85-.54.02 0 2.15-1.55 5.18-.87 2.93.66 8.81 3.87 15.36 18.03.24.51.58.96 1 1.33.12.1 11.75 10.41 16.25 25.41.57 1.91 2.42 3.08 4.46 2.8 4.25-.68 16.54-1.29 22.18 3.9.84.78 1.99 1.13 3.13 1.03 1.14-.12 2.18-.73 2.84-1.66.4-.57 9.75-14.13 6.26-36.2-.11-.69-.4-1.34-.84-1.88-4.02-4.99-10.16-15.13-9.5-21.05.13-1.23-.31-2.46-1.2-3.32-.89-.85-2.1-1.26-3.37-1.07-6.73 1.01-18.98 2.02-23.2.4-.99-.39-2.1-.35-3.08.09-.98.45-1.73 1.26-2.1 2.26-2.24 6.08-8.82 10.47-12.53 12.55-2.69-3.63-5.53-6.25-8.49-8.05 4.57-4.95 11.85-12.99 14.55-16.83 2.02-2.89 9.08-4.14 11.99-4.3h27.82c7.17 0 12.78 3.89 14.05 4.84 2.26 2.9 16.73 21.32 32.55 38.42 11.66 12.6 9.42 24.05 4.96 46.87-1.48 7.57-3.15 16.14-4.6 26.25-5.99 41.95 8.61 70.39 9.23 71.59a3.99 3.99 0 0 0 3.54 2.13c.63 0 1.26-.14 1.86-.46 1.95-1.02 2.7-3.44 1.68-5.4zM106.84 86.77c5.9.89 14.12.25 19.19-.31 1.41 8.81 8.04 18.09 10.36 21.12 1.7 12.16-1.13 21.18-3.19 25.81-5.44-2.88-12.1-3.55-17.14-3.55-1.58 0-3.01.07-4.19.15-4.99-13.57-14.35-22.95-16.94-25.37-.75-1.6-1.53-3.12-2.31-4.55 4.1-2.35 10.57-6.82 14.22-13.29zm46.84-23.7c-.34-.28-8.34-6.94-19.49-6.94h-2.58c3.36-.85 6.61-1.57 9.39-1.99.36-.12 9.04-2.71 17.06 8.48 5.43 7.56 10.33 15.56 14.29 23.18-10.37-12.15-17.99-21.97-18.1-22.12a4.64 4.64 0 0 0-.57-.6z" fill="#787878" opacity="1" data-original="#787878"></path><path d="M182.05 131.85c1.58-8.31-2.38-14.38-2.55-14.64-1.21-1.82-3.67-2.3-5.49-1.11-1.84 1.19-2.36 3.66-1.18 5.51.09.15 2.32 3.74 1.37 8.75a4.003 4.003 0 0 0 3.18 4.67c.25.04.5.07.75.07 1.87 0 3.55-1.33 3.92-3.25z" fill="#787878" opacity="1" data-original="#787878"></path></g></g></svg>