<svg xmlns="http://www.w3.org/2000/svg" version="1.1" xmlns:xlink="http://www.w3.org/1999/xlink" width="512" height="512" x="0" y="0" viewBox="0 0 256 300" style="enable-background:new 0 0 512 512" xml:space="preserve" class=""><g><g fill="#787878"><path d="M179.35 157.26c-.07-.28-.18-.54-.31-.81-.12-.24-1.04-2-2.59-4.63l-4.56-56.79c-.05-3.84-.64-37.84-3.34-46.8-.43-4.06-3.15-24.15-15.17-24.62-1.57-.25-3.86.04-5.95 1.63-4.19 3.16-6.23 10.09-6.23 21.19v35.19c-4.05-6.72-10.05-11.93-18.5-10.78-.39.11-6.84 2.28-10.34 10.28-4.25-1.19-10.88-2.12-15.85 1.56-2.23 1.66-3.49 4.63-4.25 8-5.94 1.37-10.55 4.23-13.56 8.73-6.39 9.52-3.17 22.29-3.05 22.74.25 1.06.92 3.57 2.05 6.35-6.8 47.7 8.32 69.9 11.75 74.21 6.26 21.67-.29 64.86-.36 65.3a3.998 3.998 0 0 0 3.34 4.56c.21.03.41.04.62.04 1.93 0 3.64-1.41 3.94-3.38.23-1.49 4.48-29.65 2.71-52.84.87.77 1.77 1.53 2.75 2.23.7.5 1.52.74 2.32.74 1.25 0 2.47-.58 3.25-1.67 1.28-1.79.87-4.29-.93-5.58-6.72-4.8-10.37-12.88-10.4-12.95-.11-.24-.29-.4-.43-.61-.11-.15-.15-.34-.28-.48-.17-.17-15.33-17.37-11.4-59.91 1.52 1.05 3.21 1.8 5.19 1.8.34 0 .67-.02 1.02-.06 3.73-.41 6.4-2.44 8.3-4.96.37.5.71 1.06 1.11 1.48 2.25 2.3 5.4 3.55 8.66 3.55 1.02 0 2.06-.13 3.08-.38 3.83-.95 7.03-3.61 9.22-7.49 1.68 4.41 4.68 8.53 7.29 11.26.21.22.44.41.69.57 3.06 2.01 8.89 6.7 13.56 12.45-6.21 2.82-15.94 9.25-19.66 23.06-2.19 8.11-.05 15.23.04 15.53.53 1.72 2.1 2.81 3.81 2.81.38 0 .77-.05 1.16-.17 2.1-.63 3.3-2.86 2.68-4.96-.02-.05-1.54-5.32.03-11.14 3.13-11.64 11.86-16.57 16.38-18.4 1.27 2.51 2.18 5.09 2.36 7.67.15 2.21 2.12 3.9 4.26 3.71 2.2-.15 3.86-2.06 3.71-4.26-.34-4.92-2.33-9.53-4.93-13.73-.15-.31-.32-.59-.54-.84-6.25-9.6-15.86-16.62-18.05-18.12-1.63-1.8-5.13-6.37-5.93-10.15-.04-.3-.03-.61-.14-.9 0-.01-.02-.02-.02-.03-.1-1.19.11-2.28.86-3.1 3.01-3.22 13.18 1.8 17.9 5.16 13.52 10.14 23.58 28.37 25.09 31.2 4.9 19.32-2.57 30.48-9.79 41.28-1.97 2.94-3.88 5.81-5.51 8.73-8.08 14.55-6.89 57.97-6.73 62.88a3.988 3.988 0 0 0 3.99 3.86h.13c2.2-.07 3.93-1.92 3.86-4.13-.42-12.71-.21-48.04 5.72-58.73 1.52-2.74 3.32-5.42 5.16-8.17 7.49-11.19 16.81-25.11 10.77-48.18zm-89.43-25.3c-2.06-.02-5.1-5.68-6.52-11.71-.03-.1-2.45-9.9 1.94-16.41 1.41-2.08 3.44-3.56 6.01-4.58-.05 5.04.49 9.78.82 12.07.19 1.82.94 7.92 2.63 13.9-.37 1.71-1.66 6.38-4.87 6.73zm20.09-.13c-1.52.4-3.13-.02-4.11-1.02-2.82-2.88-5.08-13.61-5.81-20.48-1.37-9.44-.79-19.76 1.19-21.24 2.21-1.64 6.15-1.03 9.04-.22-.21 1.96-.29 4.08-.13 6.46l1.11 17.32c.2 2.48.98 9.18 3.6 14.02-1.15 2.79-2.83 4.63-4.89 5.14zm41.35-9.76c-1.08-.77-6.75-4.68-13.12-6.62-1.15-3.11-1.76-8.82-1.8-12.51a3.993 3.993 0 0 0-3.99-3.95h-.04c-2.2.02-3.97 1.83-3.95 4.04.01 1.38.16 6.61 1.2 11.48-2.51.34-4.86 1.34-6.78 3.42-.82.89-1.39 1.83-1.86 2.8-.8-2.4-1.49-5.64-1.74-8.66l-1.11-17.26c-.86-13.48 6.43-16.19 6.2-16.19 10.52-1.38 15.84 20.4 16.88 28.14.29 2.08 2.19 3.63 4.23 3.46 2.1-.14 3.72-1.88 3.72-3.99v-59.8c0-11.6 2.54-14.71 2.66-14.99.36.1.72.15 1.1.15 3.72 0 6.89 10.34 7.79 18.18 2.15 7.29 3.01 35.23 3.17 45.63l3.44 42.96c-4.38-5.67-9.8-11.65-15.99-16.29z" fill="#787878" opacity="1" data-original="#787878"></path><path d="M131.93 223.04c-4.02.46-8.61-2.46-10.01-3.65-1.68-1.43-4.18-1.24-5.62.43s-1.26 4.19.41 5.64c.29.25 6.63 5.64 14.26 5.64.65 0 1.31-.04 1.98-.13a4.004 4.004 0 0 0 3.46-4.47c-.28-2.19-2.33-3.74-4.47-3.46z" fill="#787878" opacity="1" data-original="#787878"></path></g></g></svg>