<svg xmlns="http://www.w3.org/2000/svg" version="1.1" xmlns:xlink="http://www.w3.org/1999/xlink" width="512" height="512" x="0" y="0" viewBox="0 0 256 300" style="enable-background:new 0 0 512 512" xml:space="preserve" class=""><g><g fill="#787878"><path d="M188.93 148.98c-2.43-6.48-7.03-10.31-9.85-12.16.08-24.68-19.23-30.03-29.76-32.94-2.21-.61-5.23-1.45-5.88-1.98-2.34-2.34-3.28-10.62-3.23-16.07 3.73-6.85 21.21-40.37 15.03-55.56-1.51-3.72-4.32-6.29-8.11-7.43-22.53-6.74-32.35 21.56-36.55 33.65l-.29.83c-1.34 3.88-2.07 7.07-2.76 10.16-1.34 5.92-2.5 11.03-7.98 19.56-7.2 11.2-8.41 24.51-8.57 30.35-8.23 3.03-14.34 8.83-14.36 17.84-.03 9.34 3.37 15.29 6.82 18.92-1.67.83-3.31 1.86-4.73 3.24-3.26 3.17-4.93 7.3-4.95 12.26-.02 5.26 1.67 9.5 5.03 12.59.43.4.91.7 1.37 1.03-4.33 3.62-6.11 9.29-6.4 13.05 0 .77.27 5.16 5.3 9.93-2.06 2.42-3.27 5.07-3.44 7.98-.39 6.98 5.07 12.1 5.99 12.92 1.36 1 2.78 1.88 4.22 2.71v41.02c0 2.17 1.75 3.92 3.92 3.92s3.92-1.75 3.92-3.92v-37.29c9.94 3.84 20.55 4.95 29.18 4.95 10.01 0 17.33-1.41 17.78-1.52 2.75-.19 5.35-.45 7.83-.77l2.37 38.26a3.912 3.912 0 0 0 3.91 3.68h.25a3.91 3.91 0 0 0 3.67-4.15l-2.43-39.12c11.99-2.58 19.91-7.11 23.49-13.6 2.73-4.95 2.28-9.75 1.48-12.82 12.93-10.24 10.07-26.59 6-35.52 3.77-8.93 4.36-16.99 1.74-23.98zm-14.53 54.71c-1.72 1.08-2.31 3.34-1.38 5.14.1.18 2.22 4.44-.23 8.78-2.06 3.63-9.04 9.97-33.21 11.66-.31.05-28.37 5.37-48.26-5.25-.03-.01-.06-.03-.09-.04-1.61-.86-3.18-1.8-4.67-2.89-.93-.85-3.3-3.68-3.13-6.45.08-1.3.78-2.58 2-3.84 3.21 1.76 7.26 3.44 12.49 4.85 6.19 1.66 12.13 2.29 17.59 2.29 16.3 0 28.14-5.63 28.8-5.94 1.95-.95 2.76-3.3 1.82-5.25-.95-1.95-3.3-2.75-5.25-1.82-.18.1-19.02 9.01-40.92 3.14-16.96-4.56-18.31-11.43-18.39-11.43.09-.97 1.04-8.81 8.25-8.97.67-.01 1.26-.23 1.8-.54 1.67.1 2.79.03 2.75.03 1.98.1 10.55.53 20.8.53 13.91 0 30.91-.79 38.71-4.26 1.99-.88 2.87-3.19 1.99-5.17-.87-1.99-3.22-2.89-5.17-1.99-10.04 4.45-43.75 3.72-56.44 3.06-1.79.18-7.2-.09-10.21-2.89-1.67-1.55-2.48-3.77-2.48-6.76.01-2.8.85-4.98 2.56-6.64 3.5-3.41 10-4.02 12.53-4.01 39.36-1.47 50.21-12.68 51.31-13.95 1.4-1.6 1.23-4.02-.35-5.45-1.57-1.42-4.04-1.3-5.52.24-.09.1-9.83 9.98-45.49 11.32-.19 0-1.79-.02-4.06.27-2.12-1.14-8.15-5.32-8.13-16.21.03-9.96 14.27-12.59 21.78-12.59 11.61 0 24.99-4.11 25.55-4.29a3.921 3.921 0 0 0 2.58-4.91c-.64-2.06-2.81-3.25-4.91-2.58-.12.04-12.82 3.93-23.22 3.93-2.46 0-4.9.25-7.3.6.38-5.73 1.81-15.77 7.2-24.15 6.24-9.69 7.6-15.71 9.03-22.08.65-2.88 1.33-5.85 2.53-9.31l.29-.84c5.72-16.47 13.47-32.72 26.88-28.7 1.52.45 2.48 1.34 3.11 2.86 3.84 9.44-7.22 35.48-15.1 49.66-.04.08-.03.18-.07.26-.05.11-.15.2-.19.32-1.82 5.05-5.95 13.06-9.04 14.2a3.927 3.927 0 0 0-2.32 5.04 3.936 3.936 0 0 0 3.68 2.56c.45 0 .92-.07 1.36-.24 2.81-1.04 5.29-3.55 7.34-6.42.81 3.44 2.12 6.72 4.25 8.85 1.94 1.93 5.05 2.79 9.34 3.99 10.57 2.92 25.02 6.92 23.95 27.4-.08 1.6.84 3.1 2.29 3.77 1.61.75 15.48 7.93 5.83 28.78-.51 1.11-.48 2.41.1 3.5.42.78 10.07 19.3-5 28.79z" fill="#787878" opacity="1" data-original="#787878"></path><path d="M131.08 77.1c2.15-.26 3.69-2.21 3.42-4.36-.26-2.15-2.21-3.72-4.36-3.42-4.56.53-7.64-1.69-7.8-1.81-1.71-1.3-4.15-1-5.48.7a3.937 3.937 0 0 0 .67 5.51c.51.4 4.73 3.53 11.14 3.53.77 0 1.58-.04 2.4-.15zM164.03 66.29c.16 0 14.86.41 31.6 7.73l-8.84 4.49 33.14 6.28-19.26-27.69-.51 10.37c-18.8-8.61-35.3-9.01-36.02-9.02h-.05a3.92 3.92 0 0 0-.05 7.84zM91.97 72.19c2.16-.03 3.9-1.81 3.87-3.97a3.916 3.916 0 0 0-3.92-3.87h-.04c-.73 0-17.22.41-36.03 9.02L55.34 63 36.08 90.69l33.14-6.28-8.84-4.48c16.74-7.33 31.44-7.73 31.6-7.73z" fill="#787878" opacity="1" data-original="#787878"></path></g></g></svg>