<svg xmlns="http://www.w3.org/2000/svg" version="1.1" xmlns:xlink="http://www.w3.org/1999/xlink" width="512" height="512" x="0" y="0" viewBox="0 0 256 300" style="enable-background:new 0 0 512 512" xml:space="preserve" class=""><g><g fill="#787878"><path d="M175.62 157.05c-1.65-1.65-3.32-3.37-4.97-5.09 1.77-12.82 2.62-52.46 2.74-58.38 4.68-13.08 4.13-35.59 3.99-39.61.79-3.31 3.55-16.69-1.91-23.76-2.22-2.88-5.49-4.4-9.45-4.4-14.02 0-16.12 22.93-16.41 27.58-4.42 13.78-6.28 29.42-6.7 33.36-2.14 3.85-3.94 10.84-5.28 17.46l-10.14-30.68c-.81-3.25-8.22-31.95-21.86-39.81-3.66-2.12-7.61-2.63-11.36-1.54-.57.16-3.52 1.14-5.54 5.05-3.29 6.35-2.33 16.87 2.84 31.25 5.43 15.07 8.54 25.46 10.31 32.01-4.14-.87-9-.32-13.68 3.72-5.58 4.8-4.8 14.02-2.52 22.23-1.76.11-3.61.53-5.34 1.66-3.64 2.36-5.46 6.73-5.41 12.99.02 2.31.25 4.64.57 6.95 0 1.4-.02 22.88-.56 45.18-.51 21.17 12.24 37.87 16.3 42.63l-2.16 34.11c-.14 2.2 1.53 4.11 3.73 4.24h.26a4 4 0 0 0 3.98-3.74l2.26-35.77a4.02 4.02 0 0 0-1.08-3c-.16-.16-15.82-17.03-15.31-38.28.17-6.99.29-13.9.37-20.16.48 1.02.85 1.75.88 1.8.57 1.61 5.92 15.75 16.44 16.2.2 0 .4.01.6.01 3.29 0 5.99-1.18 8.22-2.74 4.09 11.21 14.5 19.95 15.04 20.39.75.6 1.64.9 2.53.9 1.16 0 2.31-.5 3.1-1.46a4 4 0 0 0-.57-5.63c-3.56-2.9-12.57-12.12-13.63-21 1.79-.28 3.61-.82 5.48-1.9 7.2-4.19 5.74-14.98 3.78-22.23 3.18.29 6.57.38 10.44-.03 1.26 6.18 4.75 17.62 13.89 22.35 1.93 1.02 4.37.25 5.38-1.71 1.02-1.96.25-4.37-1.71-5.38-7.18-3.72-9.83-15.77-10.25-20.1-.1-1.1-.66-2.11-1.54-2.78-.88-.68-2.02-.96-3.08-.78-20.31 3.27-29.27-4.76-33.22-12.09-.17-.32-.25-.54-.29-.6.69-.66 3.31-1.42 4.87-1.55.55.06 13.56 1.25 24.01.1 8.17-.81 16.02 6.03 16.06 6.03.27.3 10.74 12.15 20.26 21.68 6.28 6.28 1.53 21.79-.83 27.22-.06.14-6.17 13.94-13.76 24.77-8.46 12.09-6.61 51.29-6.37 55.73a4.001 4.001 0 0 0 3.99 3.78h.22c2.2-.12 3.89-2.01 3.78-4.21-.84-15.67-.25-43.3 4.94-50.71 8.05-11.49 14.26-25.54 14.52-26.15 1.09-2.52 10.37-24.87-.84-36.08zm-74.45 26.21h-.24c-4.08-.17-7.99-7.42-9.46-11.39-.09-.16-8.46-16.55-8.58-30.84-.02-3.2.61-5.46 1.75-6.21.97-.64 2.56-.47 3.83-.16a96.41 96.41 0 0 0 2.94 6.59c.3 2.29 1.46 9.3 5.54 21.59 2.89 8.7 6.23 14.16 10.33 16.95-1.44 1.73-3.54 3.47-6.13 3.47zm15.07-27.44c2.55 7.26 3.57 15.64 1.11 17.08-2.41 1.4-3.74 1.16-4.55.87-1.61-.61-4.84-3.17-8.25-13.45-2.5-7.55-3.81-12.88-4.51-16.25 3.06 4.36 8.17 9.11 16.2 11.75zm-18.52-23.2c-.27.48-.5 1.08-.68 1.73-.59-1.35-1.15-2.74-1.68-4.16l-.06-.18c-3.08-8.32-4.84-17.22-1.9-19.75 4.63-3.99 9.13-1.48 10.95-.13l3.69 10.6 2.7 6.26c-.49-.04-.84-.06-.93-.07-1.53.09-9.32.75-12.08 5.7zm35.05-5.57c-4.24.48-9.01.51-13.14.4l-4.14-9.62-3.8-10.8c-.1-.52-2.44-13-12.61-41.26-6.72-18.67-3.88-25.21-2.65-25.92 1.76-.52 3.4-.27 5.18.77 9.08 5.23 16.14 26.9 18.19 35.1l15.32 46.37c.59 1.78 2.35 2.95 4.17 2.72a3.997 3.997 0 0 0 3.58-3.47c1.25-9.7 4.31-26.74 7.23-31.1.37-.55.6-1.18.66-1.84.01-.18 1.77-18.23 6.61-33.06.11-.34.17-.69.19-1.05.31-6.43 2.86-20.5 8.45-20.51 1.87 0 2.66.69 3.12 1.3 2.77 3.58 1.43 13.3.36 17.45-.1.38-.14.78-.13 1.18.01.25 1.04 25.28-3.69 37.68-.16.43-.25.89-.26 1.35-.21 11.08-.9 37.25-2 51.5-4.47-4.85-7.79-8.59-8.02-8.83-.43-.4-10.82-9.77-22.62-8.37z" fill="#787878" opacity="1" data-original="#787878"></path><path d="M132.17 230.57c-8.9 2.39-16.97.05-17.06.03-2.07-.63-4.34.57-4.96 2.69-.63 2.1.56 4.33 2.66 4.96.28.09 4.69 1.39 10.88 1.39 3.16 0 6.78-.34 10.55-1.35 2.13-.57 3.4-2.77 2.82-4.9-.57-2.13-2.78-3.37-4.9-2.82z" fill="#787878" opacity="1" data-original="#787878"></path></g></g></svg>