<svg xmlns="http://www.w3.org/2000/svg" version="1.1" xmlns:xlink="http://www.w3.org/1999/xlink" width="512" height="512" x="0" y="0" viewBox="0 0 256 300" style="enable-background:new 0 0 512 512" xml:space="preserve" class=""><g><g fill="#787878"><path d="M108.43 225.75c-11.56 1.68-22.16-2.05-22.27-2.08-2.08-.75-4.36.34-5.11 2.42a4.01 4.01 0 0 0 2.41 5.11c.41.14 8.43 2.98 18.73 2.98 2.36 0 4.84-.15 7.37-.51 2.19-.31 3.7-2.34 3.39-4.52-.31-2.19-2.36-3.69-4.52-3.39z" fill="#787878" opacity="1" data-original="#787878"></path><path d="M207.33 110.77c-.25-1.26-1.32-4.33-5.81-5.46-9.9-2.46-33.1 5.52-49.02 24.78-1.72 3-4.13 6.94-6.55 10.63 2.04-18.69 5.52-50.75 6.6-61.14 2.69-25.81 3.13-40.88-2.23-46.63-1.43-1.53-3.21-2.37-5.2-2.47-1.61-.37-5.31-.81-9.53 1.63-6.9 3.98-11.74 13.59-14.4 28.58-3.09 17.46-5.32 36.27-6.71 49.73l-13.86-40.45c-1.13-2.89-11.33-28.36-23.37-32.51-3.14-1.08-6.28-.78-9.08.87-11.33 6.71-2.17 42.06 5.63 66.01-.89-.23-1.78-.49-2.69-.52-5.45-.29-9.55 3.69-10.64 4.96-1.75 1.62-7.93 8.62-3.84 21.3-11.49 7.31-7.89 26.64-6.91 30.93-4.68 33.6 8.57 59.85 13.58 69.78l.58 1.16c2.65 5.3 2.83 23.46 2.32 33.66a4 4 0 0 0 3.79 4.19h.2c2.12 0 3.88-1.66 3.99-3.79.14-2.92 1.28-28.73-3.16-37.63l-.6-1.19c-3.61-7.14-11.75-23.29-13.41-44.46 2.63 5.01 6.04 9.34 10.29 10.9 3.36 1.22 6.89.57 9.94-1.87 2.47-1.98 4.05-4.65 4.78-8.45 1.44.51 2.97.9 4.71.9 1.33 0 2.75-.19 4.22-.63 9.32-2.8 7.69-20.38 6.93-25.92.02-1.13-.08-2.81-.25-4.69 2.95.15 6.64.64 9.43 2.14.6.32 1.25.47 1.89.47 1.43 0 2.81-.76 3.52-2.1a4 4 0 0 0-1.63-5.41c-4.74-2.54-10.6-3.1-14.3-3.17-.37-2.1-.83-4.31-1.38-6.61 11.59-6.7 28.73-2.39 28.91-2.33 2.1.57 4.31-.72 4.87-2.86a4 4 0 0 0-2.85-4.87c-.26-.07-2.24-.56-5.21-1 .71-8.5 3.41-38.41 8.13-65.14 2.86-16.11 7.67-21.26 10.28-22.9 2.17-1.36 3.85-.96 3.87-.96.49.19.69.17 1.24.14 2.69 2.14 2.74 15.73.17 40.4-1.4 13.53-6.9 63.82-7.94 73.32-5.75 4.42-17.72 14.05-15.2 28.37a3.958 3.958 0 0 0 4.63 3.24 3.996 3.996 0 0 0 3.24-4.63c-1.75-9.99 7.7-17.2 12.78-21.09l.79-.6c5.37-4.15 14.7-20.14 16.13-22.74 15.04-18.12 36.11-22.94 40.53-21.61.11 3.37-3.58 7.05-4.94 8.11-11.5 8.62-29.98 41.81-31.02 43.81-9.67 27.14-22.66 41.73-29.65 49.57-1.44 1.62-2.63 2.96-3.49 4.05-5.46 6.96-2.4 35.72-.82 47.76a3.997 3.997 0 0 0 3.96 3.48c.17 0 .35 0 .52-.03 2.19-.28 3.73-2.29 3.45-4.48-2.29-17.54-3.16-38.51-.82-41.79.78-.99 1.86-2.2 3.16-3.67 7.35-8.24 21.02-23.59 30.94-51.6 5.09-9.19 20.15-34.39 28.59-40.73.4-.31 9.72-7.55 7.87-16.73zM72.29 185.53c-1.21.96-1.84.74-2.21.6-4.25-1.55-9.8-13.25-12.36-26.09s0-.01 0-.01c-.01-.07-.03-.15-.04-.22-.16-.61-4.73-19.76 4.67-23.74.91.5 4.84 3.48 8.55 19.07 5.66 23.71 3.5 28.71 1.4 30.39zm16.4-9.61c-2.97.89-5.17-.45-6.3-1.39-.38-5.49-1.61-12.4-3.72-21.24-3.24-13.56-7.34-21.5-12.56-24.27-.57-.3-1.09-.46-1.61-.62-3.33-9.38 1.19-13.56 1.35-13.69.24-.19.49-.44.67-.67.01-.02 1.91-2.26 4.38-2.22 2.34.11 5.14 2.43 7.85 6.52 8.76 13.21 11.32 35.08 11.28 38.95-.09.43-.11.9-.04 1.36 1.14 8.22.23 16.38-1.3 17.29zm-2.93-61.41c-12.01-33.38-18.44-66.38-13.5-69.3.77-.46 1.46-.53 2.4-.2 6.46 2.23 14.79 18.27 18.47 27.7l18.44 53.83c-5.82.01-12.53.93-18.59 3.91-1.81-5.6-4.16-11.17-7.23-15.94z" fill="#787878" opacity="1" data-original="#787878"></path></g></g></svg>