<svg xmlns="http://www.w3.org/2000/svg" version="1.1" xmlns:xlink="http://www.w3.org/1999/xlink" width="512" height="512" x="0" y="0" viewBox="0 0 256 300" style="enable-background:new 0 0 512 512" xml:space="preserve"><g><g fill="#787878"><path d="M149.85 236.86c-4.4 4.13-17.6 5.21-24.92 4.86-1.84 0-4.07 1.61-4.16 3.82-.1 2.2 1.61 4.07 3.81 4.16.43.01 1.46.05 2.91.05 6.42 0 21.07-.73 27.83-7.06a4.007 4.007 0 0 0 .19-5.65 4.016 4.016 0 0 0-5.65-.19z" fill="#787878" opacity="1" data-original="#787878"></path><path d="m187.14 115.89 3.29-72.51c-.07-1.1-.86-10.89-6.76-15.75-2.58-2.13-5.78-2.99-9.25-2.56-13.14 1.71-15.08 27.37-15.31 32.18-.14 1.1-2.21 16.98-3.88 33.06-.86-17.86-1.91-38.23-2.5-43.47-.66-5.83-2.7-16.23-8.93-20.41-2.6-1.75-5.61-2.2-8.73-1.32-10.43 2.95-11.09 17.7-11.11 18.48V87c-2.62-9.9-5.07-19.24-5.81-22.38-3.13-13.34-7.39-21.42-12.67-24.04-2.53-1.27-5.25-1.31-7.9-.13-8.85 3.93-8.75 15.88-7.35 22.02l5.43 36.99-3.31-7.34c-1.76-3.75-8.11-16.04-15.87-16.83-1.69-.2-5.05.08-7.84 3.81-8.05 10.72 2.03 33.44 3.08 35.68l14.29 39.74c-5.14 48.16 8.15 73.07 13.85 83.75.67 1.26 1.25 2.34 1.67 3.23 3 6.33 2.57 23.49 2.15 29.56a3.996 3.996 0 0 0 3.71 4.26h.28c2.08 0 3.84-1.61 3.98-3.72.17-2.45 1.53-24.19-2.9-33.54-.47-.99-1.1-2.18-1.84-3.58-5.84-10.94-18-33.72-12.85-80.03.07-.6 0-1.22-.21-1.79l-14.73-40.92c-3.09-6.75-8.15-22.43-4.08-27.87.4-.52.64-.65.63-.66 1.66 0 6.25 5.48 9.43 12.22l15.03 33.3c.81 1.82 2.85 2.72 4.76 2.19a4.011 4.011 0 0 0 2.84-4.42l-9.64-65.53c-.63-2.84-1.48-11.39 2.74-13.26.5-.22.75-.18 1.1-.01 2.11 1.05 5.59 6.58 8.44 18.72 1.82 7.73 13.23 50.31 13.72 52.12.33 1.23 1.21 2.12 2.31 2.59-6.66 1.95-13.08 5.03-18.11 9.93-.07.07-.1.16-.16.24h-8.45c-1.16 0-2.25.5-3.02 1.37-2 2.3-4.84 7.84-2.8 14.02 2.77 8.4 13.42 14.81 31.66 19.06.54.79 1.32 1.89 2.22 3.1-1.18 5.35-3.92 20.68.62 31.81a4 4 0 0 0 3.7 2.49c.5 0 1.02-.09 1.51-.29a3.994 3.994 0 0 0 2.19-5.21c-2.53-6.22-2.12-14.54-1.31-20.64 2.25 2.39 4.65 4.58 6.96 5.96.64.39 1.35.57 2.05.57 1.36 0 2.69-.69 3.43-1.94 1.13-1.89.52-4.34-1.37-5.48-4.96-2.98-11.94-12.63-14.22-16.1a3.974 3.974 0 0 0-2.48-1.71c-21.21-4.69-26.24-10.81-27.35-14.04-.69-1.99-.17-3.81.38-4.98h30.21c3.22 0 7.49 2.19 9.31 3.28l21.08 22.38a3.989 3.989 0 0 0 5.65.17c1.6-1.52 1.68-4.05.17-5.65l-21.44-22.75c-.22-.23-.46-.43-.73-.6-.75-.49-7.57-4.81-14.04-4.81h-10.04c16.52-7.89 40.17-4.41 40.45-4.37 2.22.33 4.22-1.16 4.56-3.34s-1.16-4.22-3.34-4.56c-.21-.03-1.14-.17-2.55-.32.04-15.66 5.84-60 5.93-60.76.57-11.38 4.16-24.43 8.38-24.97 1.27-.19 2.24.07 3.13.8 2.75 2.25 3.75 8.2 3.87 9.66l-3.3 72.29c.01 1.87.48 46.06 2.76 64.32 2.09 16.7-2.25 34.04-7.63 42.54-5.82 9.23-5.33 40.4-5.17 46.56a3.987 3.987 0 0 0 3.99 3.89h.1c2.2-.05 3.95-1.89 3.89-4.1-.34-13.32.43-36.52 3.95-42.08 5.94-9.4 11.23-28.37 8.79-47.79-2.22-17.81-2.69-62.96-2.7-63.19zm-55.2 1.64V43.75c.1-2.48 1.3-9.82 5.31-10.95 1.03-.3 1.63-.04 2.1.27 2.44 1.63 4.63 7.53 5.44 14.67.96 8.51 3.3 60.74 3.72 70.41-5.25.05-11.33.52-17.45 1.83.53-.68.88-1.52.88-2.45z" fill="#787878" opacity="1" data-original="#787878"></path></g></g></svg>