<svg xmlns="http://www.w3.org/2000/svg" version="1.1" xmlns:xlink="http://www.w3.org/1999/xlink" width="512" height="512" x="0" y="0" viewBox="0 0 256 300" style="enable-background:new 0 0 512 512" xml:space="preserve"><g><g fill="#787878"><path d="M120.03 231.7c-3.72.27-8.62.35-14.16.25-4.23-.09-7.31-.25-7.34-.25-2.42.04-4.09 1.58-4.2 3.78s1.58 4.08 3.78 4.2c0 0 3.19.16 7.6.25 1.63.03 3.2.04 4.7.04 3.88 0 7.29-.1 10.18-.31 2.2-.16 3.86-2.07 3.7-4.27-.15-2.2-2.07-3.85-4.27-3.7z" fill="#787878" opacity="1" data-original="#787878"></path><path d="M210.73 113.57c-2.13-1.43-5.49-1.66-9.98-.74-11.49 2.37-28.22 11.78-41.01 31.55-.49 1.04-1.89 3.37-3.65 5.44-1.53-6.79-2.3-17.99-2.45-24.78l7.29-72.53c.16-1.57.75-9.61-3.69-14.05-1.44-1.44-3.95-3.13-8-2.64-10.17 1.07-15.72 25.4-18.06 39.51l-5.87 23.98c-1.1-10.75-2.33-24.42-3.14-38.77-.98-17.35-4.22-28.28-9.65-32.48-2.86-2.21-5.37-1.92-6.36-1.71-13.85 3.88-12.29 35.29-11.84 41.4l.59 16.17c-1.24-4.9-2.43-9.4-3.46-12.88l-1.43-4.96c-3.45-12.11-6.17-21.68-12.53-24.26-1.81-.73-4.73-1.18-8.3.89-11.08 6.4-5.27 27.31-4.69 29.13l4.11 27.55c-.9-1.84-1.83-3.66-2.78-5.41-4.31-7.96-8.71-12.11-13.44-12.71a8.17 8.17 0 0 0-6.57 1.95c-7.71 5.64-4.27 17.49-1.27 22.97l13.1 42.32c.05.34 5.42 34.45 4.97 48.06-.49 15.3 6.87 34.41 10.5 41.26 2.17 4.08 2.63 21.05 2.28 31.79a4.005 4.005 0 0 0 3.86 4.13h.13c2.15 0 3.92-1.7 3.99-3.86.16-4.67.75-28.37-3.2-35.8-3.19-5.99-10.01-23.7-9.58-37.25.47-14.36-4.84-48.14-5.19-50.13l-13.52-43.57c-1.11-2.09-4.84-11.07-1.26-13.53.24-.16.54-.19.75-.4.3.04 3.08.6 7.41 8.59 8.14 15 14.91 35.63 14.97 35.83.18.56.49 1.03.87 1.44-2.32 2.11-3.64 3.7-3.84 3.95a4.011 4.011 0 0 0 .63 5.62c.74.58 1.62.87 2.49.87 1.17 0 2.34-.51 3.13-1.5.18-.23 18.83-23.06 53.73-13.25 2.11.63 4.34-.64 4.93-2.76.6-2.13-.63-4.33-2.76-4.93-1.7-.48-3.32-.8-4.95-1.15L139 76.93c2.69-16.14 8.02-31.97 11.07-33.18 1.05-.1 1.35.19 1.52.35 1.27 1.26 1.63 5.22 1.39 7.59l-7.31 73.01c.07 3.77.56 20.75 3.53 30.09-6.3 3.71-18.51 12.4-21.24 25.59-.45 2.16.94 4.28 3.1 4.72 2.16.45 4.28-.94 4.72-3.1 2.65-12.77 18.44-20.97 20.23-21.87.08-.04.15-.1.23-.14h.03c.02 0 .02-.03.04-.04 6.33-3.37 10.21-11.27 10.38-11.71 15.08-23.25 36.28-29.06 39.59-28.03.51.34.53.53.54.68.06.53 0 3.52-7.15 11.02-9.36 9.83-21.96 32.24-22.68 33.56-9.85 22.89-20.86 38.29-28.9 49.54-3.37 4.71-6.02 8.43-7.85 11.66-6.47 11.45-1.08 40.57-.45 43.86a3.997 3.997 0 0 0 3.92 3.23c.25 0 .51-.02.77-.07a4.01 4.01 0 0 0 3.16-4.69c-2.19-11.29-4.24-31.7-.45-38.4 1.62-2.87 4.17-6.43 7.4-10.94 7.78-10.89 19.55-27.35 29.56-50.65.13-.22 12.64-22.48 21.31-31.59 6.87-7.21 9.82-12.75 9.3-17.42-.29-2.65-1.69-4.87-4.05-6.44zM72.31 70.15c-2.02-6.89-3.13-18.17.9-20.5.28-.16 1.02-.52 1.3-.39 2.74 1.1 5.69 11.47 7.84 19.03l1.44 5.02c3.79 12.88 10.2 41.06 12.12 49.62-5.94 1.85-10.8 4.45-14.66 7.02L72.3 70.14zm31.96 50.91-1.96-53.72c-1.02-14.2.87-30.2 5.3-32.95 1.22.95 5.41 5.7 6.59 26.62 1.56 27.61 4.63 52.81 5.49 59.6-5.63-.53-10.75-.28-15.43.45z" fill="#787878" opacity="1" data-original="#787878"></path><path d="M101.39 162.8a3.996 3.996 0 0 0-.49-5.63c-1.67-1.41-4.19-1.2-5.63.49-3.03 3.61-9.23 9.99-12.96 11.71-2 .93-2.87 3.3-1.95 5.31a3.982 3.982 0 0 0 3.63 2.31c.57 0 1.13-.11 1.68-.37 6.55-3.03 14.81-12.73 15.73-13.83z" fill="#787878" opacity="1" data-original="#787878"></path></g></g></svg>