<svg xmlns="http://www.w3.org/2000/svg" version="1.1" xmlns:xlink="http://www.w3.org/1999/xlink" width="512" height="512" x="0" y="0" viewBox="0 0 256 300" style="enable-background:new 0 0 512 512" xml:space="preserve" class=""><g><g fill="#787878"><path d="M142.32 240.46c-10.91 2.31-23.32.01-23.44-.01-2.18-.38-4.26 1.02-4.67 3.18a4 4 0 0 0 3.18 4.67c.37.07 6.35 1.19 13.97 1.19 3.95 0 8.34-.31 12.61-1.2 2.16-.46 3.55-2.58 3.09-4.73-.46-2.16-2.61-3.56-4.73-3.09z" fill="#787878" opacity="1" data-original="#787878" class=""></path><path d="M180.26 176.46c-1.7-17.64-5.7-58.93-1.9-112.26 1.03-7.52 3.52-32.42-7.55-37.1-4.64-1.97-8.19-.93-10.33.3-5.46 3.1-9.04 11.25-10.95 24.91-1.23 8.78-2.26 16.44-3.14 23.21l-1.56-23.59c.16-1.44 1.46-14.34-5.15-21.57-2.88-3.15-6.7-4.88-11.55-4.63-2.37.07-4.53 1.1-6.26 2.98-7.01 7.64-6.09 30.12-5.84 34.23l-.6 23.88-5.05-24.77c-.47-1.84-4.86-18.12-13.76-22.31-3-1.42-6.22-1.4-9.34.06-12.32 5.8-6.31 31.98-4.99 37.1l9.2 38.56c-.64-.14-1.25-.41-1.9-.48-4.8-.47-9.06 1.21-11.78 4.59-4.81 5.97-3.28 15.25-.58 24.96-4.71 51.62 10.61 81.21 15.92 91.42 3.61 6.94 3.18 26.97 2.72 34.11-.14 2.2 1.52 4.11 3.72 4.25h.27c2.08 0 3.84-1.62 3.98-3.73.19-2.85 1.68-28.15-3.84-38.78-4.12-7.95-15.44-29.87-15.64-67.25 2.52 4.89 6.01 9.86 10.36 11.66 1.15.48 2.3.71 3.43.71 1.34 0 2.64-.33 3.87-.99 4.75-2.53 5.18-8.78 4.41-14.56 4.02 2.15 7.98 3.62 11.06 4.11 1.07.17 2.16.75 3.24 1.54-2.1 5.54-6.17 18.61-4.17 32.92.28 2 1.99 3.44 3.95 3.44.19 0 .37 0 .56-.04a3.986 3.986 0 0 0 3.4-4.51c-1.36-9.71.6-18.98 2.37-24.89 1.31 2 2.42 4.02 3.18 5.7a3.973 3.973 0 0 0 3.64 2.36c.55 0 1.1-.11 1.63-.35 2.02-.9 2.91-3.26 2.02-5.28-.51-1.12-3.71-7.92-8.77-13.05-.12-.14-.27-.25-.41-.38-2.68-2.63-5.82-4.79-9.4-5.37-7.54-1.19-22.2-9.97-23.53-20.73-.27-2.18.07-3.1.29-3.29 2.2-1.93 13.87 1.55 23.23 4.31l2.87.85c18.31 5.38 32.92 27.89 33.06 28.12a4.008 4.008 0 0 0 5.52 1.21 4.003 4.003 0 0 0 1.21-5.52c-.66-1.03-16.33-25.25-37.54-31.48l-2.86-.84c-.21-.06-.4-.12-.61-.18 17.16-6.31 36.74-3.16 36.96-3.11 2.18.36 4.24-1.1 4.61-3.27.37-2.18-1.1-4.24-3.27-4.61-.4-.07-3.82-.62-8.93-.87 1.07-10.45 4.16-39.67 7.66-64.75 2.07-14.81 5.57-18.27 6.98-19.07.6-.34 1.5-.65 3.28.11 3.6 1.52 4.42 16.39 2.72 28.92-3.88 54.25.31 97.55 1.88 113.85 1.91 19.76 1.6 31.3-5.32 47.43-7.85 18.32-4.19 45.07-4.04 46.2a3.991 3.991 0 0 0 3.95 3.43c.19 0 .37 0 .57-.04a4.01 4.01 0 0 0 3.4-4.52c-.04-.25-3.49-25.68 3.47-41.93 7.56-17.64 7.93-30.62 5.93-51.35zm-51.9-142.75c2.53 0 4.09.57 5.43 2.02 3.54 3.86 3.45 12.33 3.1 15.99l4.32 66.41c-5.65.22-12.12.99-18.63 2.8l1.45-58.13c-.54-9.62.25-24.88 4.34-29.09zM96.63 154.35c2.22 6.77 2.7 13.4 1.16 14.47-2.74-1.13-7.33-8.08-10.26-17.73l-.49-1.6c-2.83-9.24-6.35-20.75-2.99-24.92 1.38-1.71 3.58-1.75 4.76-1.64 1.67.17 3.79 1 5.85 2.56-1.64.36-3.11.96-4.31 1.99-2.6 2.21-3.63 5.7-3.05 10.37.81 6.5 4.57 12.05 9.33 16.52zm8.92-28.31a25.116 25.116 0 0 0-4.65-5.63L90.06 74.97c-2.59-10.08-3.85-25.84.63-27.95.94-.44 1.68-.47 2.53-.06 3.95 1.86 7.89 11.1 9.37 16.88l12.03 59.03c.05.26.19.48.28.72a52.04 52.04 0 0 0-6.21 3.19c-1.08-.27-2.15-.52-3.15-.73z" fill="#787878" opacity="1" data-original="#787878" class=""></path></g></g></svg>