<svg xmlns="http://www.w3.org/2000/svg" version="1.1" xmlns:xlink="http://www.w3.org/1999/xlink" width="512" height="512" x="0" y="0" viewBox="0 0 256 300" style="enable-background:new 0 0 512 512" xml:space="preserve" class=""><g><g fill="#787878"><path d="M145.83 230.55c-10.14 1.15-22.56-1.04-22.68-1.07a3.995 3.995 0 0 0-1.42 7.86c.43.07 8.62 1.53 17.6 1.53 2.46 0 4.97-.1 7.4-.38a3.993 3.993 0 0 0 3.52-4.42c-.25-2.19-2.28-3.78-4.42-3.52z" fill="#787878" opacity="1" data-original="#787878" class=""></path><path d="M186.75 157.32c.19-11.17 1.52-88.44 3.11-107.35.29-3.28 1.25-19.73-8.81-20.79-4.3-.49-8.1.61-11.16 3.19-5.02 4.22-7.85 12.31-8.67 24.71-1.07 16.34-5.46 52.18-7.4 67.6-1.99-12.36-7.7-42.59-19.56-70.44-.6-1.67-6.08-16.38-14.97-20.2-2.96-1.27-6.06-1.27-8.99.01-15.69 6.92-4.75 33.74-3.68 36.09l7.46 33.08c-2.44-.44-4.95-.18-7.41.92-5.23 2.32-8.02 6.36-9.23 11.02-4.33-8.55-8.79-17.43-10.67-21.34-4.13-8.61-12.26-9-17.19-7.11-.96.17-2 .63-2.9 1.55-2.73 2.78-2.96 8.26-.74 18.31 4.21 19.12 16.29 47.75 18.49 52.9.16 42.72 12.88 63.17 17.09 69.92l.66 1.06c1.53 2.69 2.34 18.84 2.12 32.24a3.985 3.985 0 0 0 3.93 4.06h.07c2.18 0 3.96-1.75 3.99-3.93.12-7.1.22-30.71-3.25-36.48l-.72-1.18c-3.93-6.31-15.88-25.53-15.88-66.53 0-.54-.11-1.09-.33-1.59-.14-.32-13.97-32.33-18.34-52.2-1.45-6.56-1.39-9.53-1.22-10.71 1.25-.48 4.87-1.37 7.03 3.13 4.16 8.64 20.15 39.98 21.04 41.73.18.39 1.56 3.45 3.34 7.54l-3.7 2.45a3.997 3.997 0 0 0-1.13 5.54 4.011 4.011 0 0 0 3.34 1.79c.75 0 1.52-.21 2.19-.66l2.5-1.65c1.93 4.62 3.8 9.31 4.82 12.5 1.87 5.81 6.61 10.13 12.41 11.26.93.19 1.86.28 2.75.28 3.34 0 6.28-1.25 8.19-3.53 3.05-3.66 3.32-11.13 3.05-16.51 3.15.34 6.32.5 9.33.35 1.17 5.43 4.23 15.2 11.72 20.38 1.8 1.25 4.3.82 5.56-1.01 1.25-1.81.81-4.31-1.01-5.56-7.46-5.17-8.96-18.38-8.98-18.52a3.965 3.965 0 0 0-1.49-2.71c-.84-.68-1.97-.99-2.98-.84-13.21 1.66-28.36-3.43-30.94-6.61-1.25-1.55-1.87-2.93-1.74-3.91.05-.41.25-.74.43-.98 4.27-.74 20.01-3.39 28.15-3.68.34-.01.68-.01 1.01-.01 3.54 0 6.15.62 7.96 1.26.19.08.38.15.59.2 1.62.63 2.46 1.22 2.41 1.18.4.45 11.74 13.08 21.38 23.76 6.71 7.43 2.96 23.75.94 29.46-.07.18-6.2 17.99-12.42 26.5-7.17 9.8-5.11 43.35-4.62 49.98a4 4 0 0 0 3.98 3.7h.3c2.2-.16 3.85-2.08 3.69-4.28-1.12-15.26-.89-39.22 3.1-44.68 6.94-9.49 13.26-27.86 13.51-28.58.35-.98 8.11-23.29-1.5-36.08zM113.54 41.35c.89-.4 1.66-.39 2.6.01 4.31 1.85 8.79 10.52 10.68 15.77 11.79 27.67 17.46 58.51 19.26 69.81-3.75.14-8.82.71-13.75 1.38-1.32-4.67-4.06-12.64-8.55-18.45l-9.58-42.2c-2.02-4.73-8.06-23.06-.66-26.33zm16.75 115.26c.42 5.8-.02 11.48-1.1 12.78-.42.51-1.67.84-3.28.53-2.29-.44-5.15-2.22-6.31-5.84-1.27-3.97-3.67-9.89-5.98-15.33 2.88 3.33 9.28 6.15 16.68 7.87zm-14.5-25.68c-.51.09-1 .28-1.44.56-.37.24-3.66 2.43-4.37 6.74-.11.64-.09 1.3-.07 1.95-1.13-2.55-1.95-4.36-2.05-4.59-.36-.88-7.92-19.71 2.08-24.16 1.47-.64 2.7-.65 4.01 0 4.46 2.25 8.31 11.04 10.41 18.07-4.7.74-8.23 1.37-8.56 1.43zm45.42-.84c1.48-11.63 6.77-53.87 8-72.51.81-12.42 3.63-17.25 5.84-19.12 1.37-1.15 3.05-1.58 5.14-1.37 1.19.71 2.22 6.46 1.72 12.17-1.4 16.61-2.57 75.26-2.99 99.15-7.69-8.53-14.69-16.32-15.04-16.65-.23-.19-1.15-.88-2.68-1.68z" fill="#787878" opacity="1" data-original="#787878" class=""></path><path d="M144.74 189.77c.14-2.2-1.53-4.1-3.73-4.24-2.13-.13-4.1 1.52-4.24 3.73-.07.98-1.4 24.06 12.2 33.66.7.5 1.51.73 2.31.73 1.25 0 2.49-.59 3.26-1.69 1.28-1.81.84-4.3-.96-5.57-9.93-7.01-8.84-26.43-8.84-26.62z" fill="#787878" opacity="1" data-original="#787878" class=""></path></g></g></svg>