<svg xmlns="http://www.w3.org/2000/svg" version="1.1" xmlns:xlink="http://www.w3.org/1999/xlink" width="512" height="512" x="0" y="0" viewBox="0 0 256 300" style="enable-background:new 0 0 512 512" xml:space="preserve" class=""><g><g fill="#787878"><path d="M165.03 238.89c-15.61 2.77-26.36.09-26.46.07-2.11-.59-4.31.73-4.87 2.87-.54 2.13.72 4.31 2.86 4.87.33.09 5.69 1.46 14.39 1.46 4.38 0 9.61-.35 15.47-1.39a3.993 3.993 0 0 0 3.24-4.63c-.38-2.18-2.52-3.64-4.63-3.24z" fill="#787878" opacity="1" data-original="#787878"></path><path d="m201.44 153.6 2.85-29.41c.05-.54 1.26-13.21-6.05-21.11-3.84-4.16-9.05-6.2-15.81-6.02-11.14.27-18.53 7.64-23 14.47-2.89-16-7.99-43.87-11.05-57.78-3.99-18.21-7.93-30.27-15.2-34.13-2.9-1.54-6.15-1.66-9.45-.34-12.8 5.13-9.02 25.36-8.87 26.09l8.49 52.16-14.09-29.36c-1.19-3.59-7.63-21.63-16.84-24.62-2.87-.92-5.75-.44-8.31 1.39-11.95 8.58-2.43 30.58-1.49 32.6l13.67 43.54c-4.08-4.93-9.08-10.86-14.99-17.7-10.89-12.61-18.93-18.84-24.58-19.05-2.53-.05-3.99 1.05-4.93 2.08-11.59 16.56 20.83 54.76 27.62 62.42.12.12 12.22 12.55 12.67 30.86.41 17.03 12.61 40.17 19.16 52.61 1.57 2.99 2.81 5.31 3.39 6.67 1.61 3.75 1.1 22.43-.31 38.31a4.008 4.008 0 0 0 3.62 4.34c.13.01.25.01.37.01 2.05 0 3.78-1.56 3.97-3.63.52-5.74 2.9-34.72-.31-42.18-.63-1.48-1.95-3.99-3.66-7.25-6.25-11.85-17.87-33.92-18.24-49.08-.52-21.6-14.41-35.72-14.83-36.13-14.13-16-31.34-41.76-27.89-50.79 1.98.75 7.34 3.8 17.91 16.03 16.09 18.63 25.33 30.44 27.5 33.24-2.18 2.65-3.2 4.56-3.34 4.83a3.975 3.975 0 0 0 1.75 5.34c.58.31 1.2.45 1.81.45 1.45 0 2.84-.79 3.56-2.16.45-.86 11.2-20.41 48.04-21.9-.98 1.07-1.87 2.29-2.49 3.79-3.07 7.45.38 17.59 10.55 30.86-10.09-1.5-15.88-5.01-15.99-5.09a3.997 3.997 0 0 0-5.52 1.18 4 4 0 0 0 1.17 5.53c.41.26 9.34 5.84 24.71 6.85-.15 1.45-.27 3.15-.28 5.15-14.52 5.74-24.72 28.24-25.91 30.97-.88 2.02.04 4.37 2.07 5.25a3.9 3.9 0 0 0 1.6.34c1.54 0 3.01-.9 3.66-2.4 2.6-5.95 10.47-20.37 19.22-25.57.59 4.09 1.65 8.64 3.52 13.54.79 2.07 3.11 3.08 5.16 2.31a4 4 0 0 0 2.31-5.16c-5.84-15.25-2.87-27.07-2.84-27.18.04-.13-.01-.27 0-.4.04-.21.13-.41.13-.63 0-.19-.08-.35-.11-.53-.03-.22-.06-.41-.13-.62-.13-.43-.34-.81-.6-1.17-.07-.09-.08-.22-.16-.31-16.81-19.29-16.23-27.3-15.2-29.84.99-2.45 3.69-3.45 5.3-3.83 7.92 5.63 25.31 18.72 29.17 25.04 4.82 7.88 5.31 16.71 4.36 39.25-.6 14.35-7.6 23.15-13.22 30.23-3.03 3.81-5.64 7.1-6.84 10.67-3.14 9.42-.5 38.14-.19 41.39.2 2.07 1.94 3.61 3.97 3.61.13 0 .26 0 .39-.01a4.003 4.003 0 0 0 3.6-4.36c-1.11-11.61-2.15-32.21-.19-38.1.75-2.24 2.96-5.02 5.51-8.23 6.01-7.56 14.23-17.92 14.95-34.86.92-21.64.68-32.6-4.84-42.47zM122.72 43.97c-.73-3.78-1.57-15.05 3.99-17.27 1.38-.56 2.16-.32 2.73-.02 5.46 2.9 9.59 21.71 11.14 28.79 3.6 16.41 10.1 52.46 12.34 65.03-6.46.34-12.27 1.15-17.36 2.37l-12.84-78.89zm-13.54 91.48L90.08 74.7c-2.69-5.96-6.55-19.5-1.31-23.27.66-.46.93-.36 1.19-.28 3.59 1.16 8.87 11.05 11.9 20l25.9 54.05c-8.14 2.9-14.23 6.65-18.58 10.25zm76.33 1.71c3.87-5.33 5.1-14.95 5.44-20.03.15-2.2-1.51-4.11-3.71-4.26-2.24-.13-4.11 1.51-4.26 3.71-.45 6.63-2.18 13.71-3.47 15.83-5.61-4.31-10.37-7.67-11.5-8.46-.75-.53-1.66-.77-2.57-.71-.96.07-2.14.28-3.41.65 1.81-4.68 8.22-18.56 20.59-18.85 4.36-.04 7.48 1.02 9.73 3.44 4.85 5.22 3.99 14.8 3.97 14.91l-2.08 21.45c-2.62-2.52-5.66-5.15-8.74-7.67z" fill="#787878" opacity="1" data-original="#787878"></path></g></g></svg>