<svg xmlns="http://www.w3.org/2000/svg" version="1.1" xmlns:xlink="http://www.w3.org/1999/xlink" width="512" height="512" x="0" y="0" viewBox="0 0 256 300" style="enable-background:new 0 0 512 512" xml:space="preserve"><g><g fill="#787878"><path d="M204.33 52.46c-1.42-2.85-3.81-4.56-7.55-4.46-14.74.08-25.52 9.76-32.15 28.71-.43-.48-.79-1.06-1.26-1.47-3.28-2.85-7.61-4.07-12.41-3.54-4.17.46-7.31 2.53-9.77 5.08-.46-.78-.89-1.57-1.57-2.24-3.83-3.74-9.59-3.59-14.72-2.93-6.32.79-10.3 3.8-12.61 7.39-.98-1-2.07-1.87-3.38-2.46-4.46-1.99-9.46-.51-13.79 1.21-6.12 2.45-8.62 7.49-9.6 12.05-2.82-1.18-5.95-1.28-9.17-.19l-.9.29c-5.61 1.77-11.06 4.98-12.19 14.11-2.31.59-4.36 1.66-6.09 3.4-6.23 6.24-6.26 17.59-6.22 19.15 0 .06.46 5.73-.22 25.34-.54 15.8 2.55 22.23 6.46 30.37 1.36 2.83 2.84 5.91 4.33 9.8 4.33 11.37 2.56 43.03 1.52 54.27a4.007 4.007 0 0 0 3.61 4.35c.13.01.25.02.38.02 2.04 0 3.78-1.56 3.97-3.63.16-1.72 3.87-42.42-2.01-57.85-1.57-4.14-3.15-7.42-4.59-10.42-3.71-7.71-6.16-12.8-5.68-26.63.69-20.23.22-26.02.2-26.02-.02-2.54.63-9.84 3.91-13.11.18-.18.41-.26.6-.42.12 1.09.17 2.09.38 3.3 1.16 6.74 7.49 40.67 17.17 46.59 1.36.83 2.63 1.1 3.7 1.1.75 0 1.41-.13 1.95-.3 3.48-1.09 5.93-3.16 7.62-5.31 2.26 2.04 5.28 3.57 9.27 3.57.5 0 1.02-.03 1.55-.07 2.45-.23 4.57-.95 6.46-1.86 3.8 15.73 17.64 22.49 18.31 22.8.54.26 1.13.38 1.7.38 1.49 0 2.93-.85 3.61-2.29.94-2 .09-4.38-1.91-5.32-.13-.06-12.12-6.04-14.25-19.65 2.35 2.17 5.3 3.66 9.12 3.66 7 0 11.4-3.12 13.54-9.57 1.26.6 2.65 1.03 4.31 1.03 10.17 0 16.25-14.45 16.97-16.26.34-.98 8.39-24.15 7.99-37.92-.1-3.38-.55-6.31-1.16-9.04 5.21-20.8 14.31-31.42 27.39-31.51.66.89.52 7.3-7.4 17.66-6.99 9.13-9.76 39.63-9.36 47.65.38 7.53-.75 26.55-1.91 35.79-1.02 8.13-8.42 18.87-8.39 18.86-.22.25-13.29 15.49-22.3 20.9-10.99 6.59-8.97 41.09-8.09 51.51a3.985 3.985 0 0 0 3.97 3.66c.11 0 .23 0 .34-.01 2.2-.19 3.83-2.12 3.64-4.32-1.6-19.05-.28-41.27 4.24-43.98 10.15-6.09 23.7-21.89 24.51-22.87.35-.51 8.73-12.57 10-22.75 1.19-9.55 2.37-29.29 1.97-37.17-.42-8.31 2.68-35.81 7.72-42.4 7.92-10.35 11.08-20.33 8.24-26.03zM84.8 155.49c-3.05-2.41-9.05-17.31-13.14-40.92-2.48-14.31 2.12-15.76 6.18-17.04l1.08-.35c.78-.26 1.43-.37 1.98-.37.81 0 1.37.22 1.78.42 1.98.99 3.31 3.54 3.82 4.85l2.63 49.1c-.4.97-1.6 3.22-4.34 4.31zm19.51-1.93c-5.09.53-6.99-4.5-7.28-5.54-.01-.05-.05-.09-.07-.15l-2.51-46.79c-.02-.33-.08-.66-.18-.97-.09-.29-.49-1.47-1.27-2.96-.2-2.18-.48-9.76 5.07-11.98 3.74-1.5 6.22-1.95 7.55-1.34 1.36.61 2.72 2.83 4.16 6.66l1.93 48.43c.23 2.51.91 5.6 2.06 8.6-1.45 2.03-4.62 5.58-9.45 6.03zm23.79-2.31c-6.95 0-8.42-12.86-8.43-12.86s-1.96-49.2-1.96-49.2c-.22-2-.26-8.59 8.17-9.65 4.33-.54 7.08-.3 8.14.72.96.94 1.3 3.36.99 6.79-.72 2.02-1.08 3.51-1.12 3.71-.05.27-.08.55-.08.82v42.43c.06 2.1.46 4.69 1.27 7.2-.64 9.95-4 10.03-6.98 10.03zm27.34-19.62c-1.8 4.47-6.06 11.07-9.49 11.07-3.16 0-4.1-7.17-4.16-8.81V92.06c.52-1.98 3.36-11.67 10.03-12.41 2.66-.31 4.69.24 6.29 1.63 2.87 2.5 4.58 7.99 4.8 15.47.36 12.3-7.46 34.82-7.48 34.88z" fill="#787878" opacity="1" data-original="#787878"></path><path d="M120.12 199.6c-9.96 1.36-26.89-2.66-27.07-2.7-2.17-.52-4.3.81-4.81 2.95-.52 2.15.8 4.3 2.95 4.82.63.15 13.41 3.19 24.28 3.19 2.01 0 3.96-.1 5.75-.35 2.19-.3 3.72-2.31 3.41-4.5-.29-2.19-2.34-3.69-4.5-3.42z" fill="#787878" opacity="1" data-original="#787878"></path></g></g></svg>