<svg xmlns="http://www.w3.org/2000/svg" version="1.1" xmlns:xlink="http://www.w3.org/1999/xlink" width="512" height="512" x="0" y="0" viewBox="0 0 256 300" style="enable-background:new 0 0 512 512" xml:space="preserve"><g><g fill="#787878"><path d="M139.13 227.62c-10.93 3.27-24.1-1.43-24.23-1.47-2.13-.76-4.37.32-5.13 2.38a4 4 0 0 0 2.38 5.12c.46.17 8.66 3.12 18.3 3.12 3.57 0 7.33-.4 10.97-1.5 2.11-.63 3.31-2.86 2.68-4.98-.64-2.12-2.88-3.32-4.98-2.67z" fill="#787878" opacity="1" data-original="#787878"></path><path d="m176.67 124.01-9.7-74.04c-.04-.28-.1-.55-.2-.82-.49-1.38-5.08-13.4-14.42-11.98-2.26.36-4.32.79-6.06 1.56-2.74-6.43-7.61-12.25-15.52-11.27-7.84.95-11.14 7.61-12.24 14.41-1.6-.45-3.61-.63-6.1.09-10.86 3.1-13.22 13.37-13.37 22.78-1.05-.06-2.16-.03-3.37.22-9.17 1.83-11.31 14.14-11.56 15.84l-2.1 27.34c-.01.11-1.5 10.85-6.84 38.17-4.51 23.05-.23 37.1 4.72 53.36 1.25 4.13 2.58 8.45 3.81 13.14 5.86 22.27 6.99 55.62 7 55.95a3.997 3.997 0 0 0 3.99 3.87h.13a3.992 3.992 0 0 0 3.87-4.12c-.04-1.4-1.16-34.58-7.26-57.73-1.27-4.8-2.61-9.21-3.9-13.44-4.83-15.86-8.64-28.4-4.52-49.49 5.4-27.62 6.86-38.19 6.95-38.86l2.09-27.26c.4-2.55 2.28-8.34 5.19-8.92 2.53-.49 3.75.83 4.28 1.75l1.89 47.36c-1.28.93-2.45 1.93-3.37 3.05a3.988 3.988 0 0 0 .57 5.62 4.01 4.01 0 0 0 5.63-.56c3.81-4.68 16.88-8.38 32.51-9.22 15.33-.79 26.22 1.43 28.79 3.96 4.22 4.15 5.93 14.08 6.64 25.38-12.44-12.43-32.59-13.83-33.65-13.89-12.79-.88-43.09-1.9-48.52 7.49-.9 1.56-2.01 4.81.78 8.96 7.24 10.76 18.77 13.39 27.74 13.6-5.9 5.39-11.48 15.38-13.21 34.04l-.08.84c-.39 1.95.72 3.93 2.65 4.57.42.14.85.21 1.27.21 1.67 0 3.23-1.06 3.79-2.73.18-.55.22-.99.33-2.15 2.04-21.95 9.36-29.46 15.14-31.89.16-.07.26-.19.4-.27 5.85 11.05 21.72 20.08 23.89 21.27a4 4 0 0 0 5.43-1.59c1.06-1.94.34-4.36-1.59-5.42-7.18-3.92-22-14.45-22-22.01 0-1.23-.57-2.39-1.54-3.15s-2.25-1.02-3.44-.72c-.23.06-22.38 5.45-32.15-9.06-.22-.34-.34-.57-.4-.63 2.52-3.09 21.8-4.69 40.98-3.38.29.02 28.83 2.01 34.67 21.86.02 2.9.03 5.77.03 8.54v2.35c0 15.32-4.14 22.97-8.52 31.07-1.57 2.9-3.13 5.81-4.53 9.04-5.58 12.9-3.28 47.88-2.99 51.82.15 2.1 1.9 3.71 3.98 3.71.1 0 .19 0 .29-.01 2.2-.16 3.86-2.07 3.7-4.27-.72-10.18-1.71-38.68 2.35-48.08 1.3-3 2.77-5.71 4.23-8.41 4.66-8.61 9.47-17.52 9.47-34.87v-2.35c.01-19.44-.02-39.37-6.04-50.63zM149.19 46.2c.21-.19 1.05-.6 4.4-1.13 2.01-.35 4.46 3.76 5.51 6.39l8.42 64.32c-4.63-1.76-10.83-2.66-17.25-2.98-.3-13.48-1.33-59.82-1.33-64.33 0-1.84.25-2.28.25-2.28zm-39.7 27.2c-.01-.44-.11-.88-.27-1.29-.38-.98-1.11-2.19-2.11-3.35-.68-16.63 4.8-18.34 7.5-19.11 1.42-.39 1.95-.07 2.13.03.82.47 1.38 1.74 1.46 1.74l4.05 63.43c-3.71.73-7.47 1.73-11.01 3.07l-1.77-44.51zm28.85 39.42c-1.8.1-4.71.31-8.15.73l-4.03-62.54c0-.1.04-.19.03-.29-.01-.15-1.27-14.5 5.54-15.33 6.82-.86 9.07 12.34 9.24 13.47.03 5.89 1.01 50.08 1.32 63.83-1.33.03-2.66.06-3.95.13z" fill="#787878" opacity="1" data-original="#787878"></path></g></g></svg>