<svg xmlns="http://www.w3.org/2000/svg" version="1.1" xmlns:xlink="http://www.w3.org/1999/xlink" width="512" height="512" x="0" y="0" viewBox="0 0 256 300" style="enable-background:new 0 0 512 512" xml:space="preserve" class=""><g><g fill="#787878"><path d="M208 93.06c-6.84-9.83-29.48 1.17-36.26 4.78a4.4 4.4 0 0 0-1.04.79l-20.15 21.5c-.93 1.05-3.95 3.79-6.81 3.88-.9.02-2.13-.13-3.73-1.73-6.27-6.27-11.58-23.32-9.79-35.85 3.18-.66 8.04-2.03 11.33-4.62 5.76.66 14.96 1.21 21.64-.45 1.79.78 4.87 1.83 8.81 1.83 3.51 0 7.61-.86 11.8-3.56 4.67-3 5.84-6.55 5.99-9.01.16-2.71-.82-5.11-2-7 1.63-.68 2.66-1.34 2.77-1.42.38-.26.72-.57.99-.94 2.46-3.33 2.18-6.41 1.51-8.42-2.73-8.17-17.67-12.96-20.87-13.91-.85-.19-20.91-4.77-37.09-5.79-18.26-1.08-24.83 9.54-24.85 9.63-.14.19-14.09 18.77-22.96 29.45-9.56 11.52-15.32 40.51-15.61 42.04-.07.64-7.7 64.55-17.19 80.7-10.51 17.86-8.66 66.07-8.58 68.12a3.996 3.996 0 0 0 3.99 3.83h.16a4 4 0 0 0 3.83-4.16c-.54-13.27-.26-50.59 7.47-63.74 10.34-17.58 17.93-81.12 18.2-83.51 1.53-7.81 7.01-29.9 13.87-38.17 8.99-10.83 23.06-29.56 23.41-30.06.17-.28 4.58-6.99 17.73-6.14 15.5.98 35.54 5.54 35.57 5.54 6.52 1.93 14.41 5.98 15.32 8.71.04.12.09.27 0 .53-1.33.66-4.5 1.89-7.73.7-7.19-2.77-20.12-7.37-30.57-9.03-15.23-2.43-22.81-.12-23.62.15-2.08.69-3.19 2.93-2.52 5.01s2.9 3.24 5.01 2.58c.07-.02 6.58-1.97 19.88.14 12.66 2.02 30.09 9.01 33.56 10.43.91.9 2.43 2.78 2.34 4.23-.07 1.1-1.3 2.11-2.33 2.77-2.76 1.78-5.44 2.29-7.71 2.27 1.03-1.9 2.06-4.79 1.06-7.8-.72-2.18-2.75-5.06-8.34-6.36-9.44-2.2-31.98-4.41-43.6.09-1.31.43-13.2 4.8-26.29 27.2a3.996 3.996 0 0 0 1.43 5.46c1.91 1.12 4.36.47 5.46-1.43 11.57-19.79 21.8-23.6 22.06-23.7 8.96-3.46 28.82-2.24 39.11.16 1.81.42 2.49.97 2.57 1.09.07.37-.41 1.54-1.27 2.62-.24.28-.72.52-1.33.74-.09.02-.18.05-.27.08-3.77 1.23-13.04 1.45-21.69.32-1.36-.2-2.71.35-3.58 1.4-1.59 1.91-7.41 3.48-10.84 3.95a4.002 4.002 0 0 0-3.36 3.03c-3.73 15.67 3.08 37.53 11.43 45.88 2.78 2.78 5.96 4.24 9.69 4.06 6.83-.25 11.97-5.96 12.43-6.5l19.6-20.91c12-6.28 23.93-9.08 25.36-6.96 3.26 4.69-4.32 12.39-4.31 12.39-3.08 2.59-30.17 25.51-34.74 34.32-.78 1.5-1.72 3.29-2.71 5.15-.28-1.23-.52-2.04-.55-2.15-.65-2.1-2.85-3.3-5-2.64-2.1.65-3.29 2.88-2.64 4.99.03.08 2.27 7.73.68 13.83-1.17 2.18-2.11 3.91-2.53 4.69-2.72 2.84-18.46 19.49-28.77 34.19-8.29 11.8-22.02 12.62-27.64 12.36l-.52-.01c-2.18 0-3.77 1.75-3.81 3.92-.04 2.18 1.85 3.99 4.02 4.08.53.02 1.11.03 1.75.03 4.56 0 11.8-.74 18.97-4.18-1.48 13.65-3.51 37.9-.22 45.86a4.004 4.004 0 0 0 3.69 2.47c.51 0 1.03-.1 1.53-.31a3.986 3.986 0 0 0 2.16-5.22c-2.55-6.17-.45-32.58 1.57-48.77 1.77-1.64 3.49-3.45 5.03-5.65 10.73-15.27 28.19-33.45 28.36-33.63.25-.26.47-.55.64-.87 0 0 8.71-16.09 13.07-24.47 2.9-5.58 21.65-22.52 33.01-32.08 4.75-4.6 11.27-14.6 5.52-22.88z" fill="#787878" opacity="1" data-original="#787878" class=""></path><path d="M104.32 185.57a4 4 0 0 0-2.31 5.16c.6 1.59 2.12 2.58 3.73 2.58.47 0 .96-.09 1.43-.26 10.7-4.08 13.84-24.45 13.27-40.66-.39-11.11 1.39-14.4 1.9-15.11a4.002 4.002 0 0 0 2.78-3.81c0-2.21-1.78-4-3.99-4-.72 0-2.58.21-4.42 2.11-3.25 3.36-4.64 10.26-4.25 21.09.71 20.29-4.33 31.46-8.14 32.91z" fill="#787878" opacity="1" data-original="#787878" class=""></path></g></g></svg>