<svg xmlns="http://www.w3.org/2000/svg" version="1.1" xmlns:xlink="http://www.w3.org/1999/xlink" width="512" height="512" x="0" y="0" viewBox="0 0 256 300" style="enable-background:new 0 0 512 512" xml:space="preserve" class=""><g><g fill="#787878"><path d="M132.6 222.58c-7.87.94-22.51-.02-22.67-.02-2.46-.29-4.11 1.52-4.25 3.72a3.989 3.989 0 0 0 3.72 4.25c.42.03 6.96.46 13.84.46 3.62 0 7.34-.12 10.32-.47a3.993 3.993 0 0 0 3.49-4.44c-.27-2.2-2.31-3.78-4.45-3.49z" fill="#787878" opacity="1" data-original="#787878" class=""></path><path d="M181.86 166.83c-.64-7.16-3.7-13.95-7.38-19.78l-4.64-94.16c-.13-4.53-1.39-27.17-13.54-27.62-1.48-.06-3.54.29-5.58 2.21-7.37 6.92-8.45 32.69-8.59 37.76l-.47 13.63c-.61-.87-1.28-1.68-1.99-2.4-2.99-3.03-6.85-4.54-10.88-4.38-4.45.11-12.21 2.84-16.14 11.2-1.4-.96-2.91-1.72-4.59-2.03-4.53-.83-9.31.98-12.74 4.87-1.73 1.96-2.84 4.58-3.59 7.51-3.81-1.03-8.18-.12-12.07 2.55-7.05 4.85-5.94 14.43-4.96 22.88l.15 1.27c.23 2.03.75 4.1 1.45 6.13-2.71 14.98-2.4 42.11 13.56 87.69 3.59 10.26 1.07 42.56-.2 54.14a3.998 3.998 0 0 0 3.53 4.41c.15.02.3.03.45.03 2.01 0 3.74-1.52 3.96-3.56.49-4.44 4.64-43.82-.2-57.66-12.37-35.36-15.03-58.86-14.29-73.99 2.39 2.27 5.16 3.9 8.26 4.37.53.08 1.05.12 1.55.12 3.9 0 6.9-2.33 8.89-5.54 1.25 1.09 2.51 2.16 3.91 2.95 1.31.74 2.72 1.12 4.16 1.12.81 0 1.62-.12 2.43-.35 3.11-.91 5.57-3.42 7.18-5.53.32.06.64.12.99.15.31 1.33.64 2.67 1.16 4.14 4.87 13.76 17.28 19.62 23.15 21.68.02 4.65.35 13.58 2.31 20.25.63 2.12 2.87 3.35 4.96 2.7a3.995 3.995 0 0 0 2.71-4.96c-2.35-7.96-1.96-20.68-1.96-20.81.06-1.91-1.25-3.59-3.1-4.03-.16-.03-15.68-3.79-20.53-17.5-1.86-5.24-1.7-8.25-.93-9.32.32-.45.87-.62 1.22-.69l24.63 9.16c2.97 2.62 18.46 16.96 19.82 32.14 1.6 17.82-11.22 36.41-16.7 44.35-7.16 10.38-8.29 53.83-8.4 58.75a3.99 3.99 0 0 0 3.9 4.08h.09c2.17 0 3.95-1.74 3.99-3.91.38-17.66 2.62-48.04 6.99-54.38 5.96-8.65 19.94-28.92 18.07-49.61zm-89.32-32.85c-4.22-.63-8.96-7.71-9.75-14.56l-.15-1.28c-.72-6.21-1.55-13.25 1.54-15.37 2.31-1.58 4.37-1.77 5.55-1.43.45.13.72.33.9.52-.19 5.35.35 11.01 1.12 15.95.67 4.28 2.24 8.29 4.36 11.83-.5 1.74-1.61 4.59-3.58 4.33zm17.09-1.53c-3.79-2.13-8.67-7.57-9.97-15.86-1.91-12.21-1.28-21.85 1.64-25.16 1.55-1.77 3.53-2.63 5.3-2.31 1.54.28 2.78 1.59 3.66 3.49-1.54 14.55-1.57 21.96-1.56 22.54.13 1.85.89 9.53 4.3 14.74-.99 1.21-2.21 2.35-3.37 2.57zm49.08-3.6c-.35-.29-.75-.51-1.16-.68l-23.11-8.6c.95-9.09.97-22.78.97-23.44a3.99 3.99 0 1 0-7.98 0c0 .16-.02 14.13-.95 22.73-1.53.52-3.22 1.41-4.59 3.22-.88 1.16-1.39 2.57-1.74 4.1-1.87-2.02-3.2-7.73-3.46-11.32 0-.08.03-7.72 1.65-22.64 1.24-11.38 9.74-12.11 10.71-12.16 1.92-.08 3.52.55 4.93 2 5.81 5.88 6.7 21.9 6.55 29.49l-.06 1.83a4.004 4.004 0 0 0 3.82 4.13c2.39-.06 4.05-1.6 4.16-3.79.01-.34.04-1.03.07-1.99l1.6-46.25c.43-15.3 3.39-30.69 5.89-32.23 2.66.1 5.56 9.94 5.85 19.95l4.07 82.7c-3.82-4.19-6.89-6.78-7.22-7.06z" fill="#787878" opacity="1" data-original="#787878" class=""></path><path d="M133.89 168.33c.62-2.12-.58-4.34-2.69-4.96-2.11-.63-4.34.56-4.96 2.68-.29.98-6.95 24.12 11.86 37.66.71.51 1.52.75 2.34.75a3.998 3.998 0 0 0 2.34-7.24c-14.15-10.18-9.09-28.14-8.87-28.89z" fill="#787878" opacity="1" data-original="#787878" class=""></path></g></g></svg>