<svg xmlns="http://www.w3.org/2000/svg" version="1.1" xmlns:xlink="http://www.w3.org/1999/xlink" width="512" height="512" x="0" y="0" viewBox="0 0 256 300" style="enable-background:new 0 0 512 512" xml:space="preserve"><g><g fill="#787878"><path d="M140.75 229.13c-20.08 3.9-36.5.08-36.67.04-2.18-.51-4.3.81-4.81 2.95-.51 2.15.8 4.3 2.94 4.82.49.12 8.3 1.96 19.87 1.96 5.91 0 12.8-.48 20.2-1.92a4 4 0 0 0 3.16-4.68c-.43-2.17-2.57-3.59-4.69-3.16zM146.81 152.72c-1.96-.97-4.37-.15-5.34 1.84-.59 1.21-14.35 29.86-9 55.11a4 4 0 0 0 3.9 3.17c.28 0 .56-.03.84-.09a3.996 3.996 0 0 0 3.08-4.74c-4.78-22.54 8.23-49.69 8.36-49.96.97-1.98.14-4.37-1.84-5.34z" fill="#787878" opacity="1" data-original="#787878"></path><path d="M188.66 142.88v-32.15c0-8.13-3.84-23.68-18.42-24.31-6.58-.24-11.2 2.97-14.59 7.27V40.4c-.08-1.92-.74-11.71-5.91-15.91-2.01-1.63-4.43-2.26-6.99-1.83-10.22 1.71-12.99 14.88-13.17 15.99l-2.84 48.18-5.78-31.24c-.83-3.82-5.5-22.8-17.04-20.53-11.52 2.21-9.81 21.79-9.58 23.83l2.22 38.75c-8.58-20.46-17.28-33.08-25.59-36.93-4.24-1.96-7.1-1.08-7.87-.77-.4.16-.76.39-1.08.66-10.58 9.09 4.93 49.24 12.36 66.67.7 5.4 6.34 49.81 4.73 66.44-1.55 16.04 2.08 26.23 5.3 35.22.64 1.8 1.28 3.57 1.86 5.36 2.59 8.03.75 30.68-.17 38.74a4.006 4.006 0 0 0 3.52 4.43c.16.01.31.03.46.03 2 0 3.72-1.5 3.96-3.54.36-3.14 3.43-30.98-.17-42.11-.6-1.87-1.26-3.71-1.93-5.59-3.08-8.6-6.25-17.5-4.87-31.76 1.79-18.54-4.57-66.75-4.84-68.8-.05-.36-.15-.71-.29-1.04-11-25.7-17.73-51.05-15.35-57.01 3.28.99 15.54 8.08 31.61 57.76-3.06 1.37-4.94 2.45-5.16 2.59a3.987 3.987 0 0 0-1.28 5.49 4.006 4.006 0 0 0 3.4 1.89c.72 0 1.44-.19 2.1-.6.16-.1 16.39-9.76 42.76-8.93 1.24.02 2.48-.69 3.28-1.74.61 8.44 6.38 18.86 17.37 31.13-1.83 5.98-5.4 21.68 3.52 32.07 1.43 1.67 3.95 1.86 5.63.43a3.995 3.995 0 0 0 .43-5.64c-7.83-9.14-1.38-26.2-1.31-26.37.55-1.42.25-3.03-.78-4.15-16.05-17.39-17.46-26.53-16.88-30.42.14-.95.42-1.7.73-2.28 2.38 1.93 5.17 4.41 8.24 7.17 4.67 4.18 9.97 8.92 15.66 13.27 8.85 6.77 14.01 29.27 13.67 41.79-.26 9.77-10.86 18.87-11.02 19-.1.09-10.37 9.1-21.14 19.86-11.81 11.81-7.97 49.68-7.49 53.96a3.99 3.99 0 0 0 3.96 3.56c.15 0 .3 0 .45-.03a3.99 3.99 0 0 0 3.53-4.41c-1.63-14.69-1.66-40.56 5.21-47.43 10.56-10.57 20.65-19.41 20.69-19.45.54-.46 13.44-11.47 13.8-24.85.24-8.8-2.36-26.25-8.89-38.42zM102.3 58.25c-.62-6.03.27-14.79 3.13-15.34 2.46-.34 6.22 7.5 7.7 14.26l11.35 61.37c-7.32.84-13.62 2.27-18.51 3.85l-3.68-64.15zm41.16 61.18c-.01.08 0 .17-.02.25-.69-1.05-1.8-1.79-3.15-1.84-2.59-.09-4.97 0-7.37.09l4.56-78.24c.46-2.16 2.63-8.49 7.23-9 1.7 1.38 2.81 6.72 2.96 9.88v71.1c-1.57 1.42-3.48 3.78-4.21 7.76zm31.15 8.5 1.98-16.73c.25-2.19-1.31-4.18-3.5-4.43-2.25-.25-4.18 1.31-4.44 3.5l-1.34 11.34c-.56-.5-1.19-1.04-1.73-1.53-3.54-3.17-6.68-5.97-9.46-8.14 1.27-5.2 5.16-17.53 13.43-17.53h.37c10.58.46 10.77 15.69 10.78 16.32v22.16c-2.09-1.6-4.09-3.29-6.07-4.96z" fill="#787878" opacity="1" data-original="#787878"></path></g></g></svg>