<svg xmlns="http://www.w3.org/2000/svg" version="1.1" xmlns:xlink="http://www.w3.org/1999/xlink" width="512" height="512" x="0" y="0" viewBox="0 0 256 300" style="enable-background:new 0 0 512 512" xml:space="preserve"><g><g fill="#787878"><path d="M189.58 195.07c-2.47-.11-4.11 1.56-4.22 3.75-.28 4.58-1.54 27.78.12 34.11a4.01 4.01 0 0 0 4.89 2.85 4.002 4.002 0 0 0 2.85-4.88c-1.04-3.94-.48-21.47.12-31.6.13-2.2-1.54-4.09-3.75-4.22z" fill="#787878" opacity="1" data-original="#787878"></path><path d="M233.33 171.08c.92-15.66.06-31.77-12.36-43.46-13.31-12.53-40.63-40.02-43.22-45.73-4.03-8.85-28.44-20.68-46.31-17.18-15.39 3.02-75.24 8.18-87.16 8.18-9.46 0-18.91 3.72-22.96 9.05-1.93 2.53-2.58 5.4-1.84 8.08 2.02 7.24 16.97 11.27 23.98 12.76 2.48.12 12.66.56 25 .54-.3.77-.52 1.59-.59 2.47-.09 1.13.1 2.23.44 3.3-4.06.2-10.29 1.14-14.17 4.97-2.41 2.38-3.58 5.52-3.37 9.09.78 13.83 25.88 16.92 31.02 17.41 4.66.31 8.94.86 12.98 1.55.7 3.34 2.57 8.43 7.54 12.3 4.38 3.4 10.15 5.11 17.25 5.11 4.14 0 8.8-.68 13.83-1.84 4.17 2.92 7.73 5.83 10.79 8.38 2.56 2.13 4.85 4.04 7 5.55 4.52 3.18 10.26 5.38 15.8 6.91.14 11.42-3.3 39.79-4.77 50.67a3.992 3.992 0 0 0 3.43 4.49c.19.03.37.04.54.04a4.02 4.02 0 0 0 3.96-3.46c.21-1.57 4.59-34.23 4.82-49.92 6.33 1.17 11.2 1.48 11.62 1.51h.23a3.993 3.993 0 0 0 .24-7.98c-.12 0-7.12-.46-15.05-2.32-.02 0-.03 0-.05-.01-5.64-1.32-11.74-3.36-16.17-6.47-1.99-1.4-4.11-3.17-6.48-5.15-3.61-3.01-7.78-6.48-12.87-9.92-.01 0-.02-.02-.03-.02-11.68-7.9-28.2-15.67-53.96-17.36-9.75-.94-23.4-4.9-23.69-9.9-.09-1.63.49-2.43 1-2.93 2.4-2.38 8.6-2.89 12.27-2.69.22 0 21.03-.63 37.19 0 12.19.49 46.46-1.9 52.02-9.98 1.25-1.82.83-4.36-.99-5.61-1.81-1.26-4.26-.84-5.52.98-1.94 2-12.49 4.36-24.34 5.67-5.73-.58-9.73-5.98-11.86-9.82.9-.34 1.8-.68 2.54-1.06a3.993 3.993 0 0 0 1.7-5.39 4.007 4.007 0 0 0-5.39-1.7c-6.43 3.35-22.98 4.64-39.22 5.02h-.06c-13.33.31-26.45 0-33.57-.3-8.1-1.79-16.38-5.18-17.32-7-.04-.16.1-.57.5-1.1 2.2-2.9 9.02-5.89 16.6-5.89 12.45 0 72.55-5.16 88.7-8.33 14.7-2.87 35.28 7.79 37.5 12.65 4.3 9.48 44.61 47.86 45.02 48.24 9.47 8.91 10.79 21.31 9.87 37.17-.96 16.32 3.31 59.85 3.49 61.7.21 2.06 1.94 3.61 3.97 3.61.13 0 .27 0 .4-.02 2.19-.22 3.8-2.17 3.58-4.37-.04-.45-4.4-44.75-3.48-60.44zM107.3 148.15c-1.63-1.24-2.69-2.7-3.43-4.1 7.35 1.92 13.56 4.43 18.9 7.19-6.66.5-12.01-.44-15.47-3.08zm9.25-39.05c-2.43.06-4.8.06-7.04-.02-11.06-.43-24.19-.29-31.56-.14-1.65-1.26-2.15-2.19-2.13-2.52.07-.86 1.77-2.31 3.39-3.23 11.1-.28 22.6-1.05 31.36-2.76 1.19 2.37 3.19 5.68 5.98 8.67z" fill="#787878" opacity="1" data-original="#787878"></path></g></g></svg>