<svg xmlns="http://www.w3.org/2000/svg" version="1.1" xmlns:xlink="http://www.w3.org/1999/xlink" width="512" height="512" x="0" y="0" viewBox="0 0 256 300" style="enable-background:new 0 0 512 512" xml:space="preserve"><g><g fill="#787878"><path d="M205.24 180.89a3.984 3.984 0 0 0-5.49 1.33c-1.19 1.95-10.64 3.94-19.44 4.09a4.004 4.004 0 0 0-3.93 4.06 3.995 3.995 0 0 0 3.99 3.93h.07c5.05-.09 21.83-.9 26.12-7.92 1.15-1.88.55-4.34-1.33-5.49z" fill="#787878" opacity="1" data-original="#787878"></path><path d="M234.35 165.71c-.07-1.15-1.84-28.44-18.02-47.58-15.44-18.28-42.36-44.92-42.63-45.19-.19-.19-.41-.37-.64-.52-1.56-1.01-15.46-9.89-24.78-9.49-2.66.1-13.82.14-27.59.14-27.75 0-66.15-.09-66.96-.13-1.09.12-10.79 1.31-14.99 6.95-1.71 2.29-2.34 5.02-1.8 7.89.12.67.35 1.31.64 1.93-5.23.71-10.98 2.21-13.85 5.48-1.67 1.9-2.36 4.21-2 6.67 1.89 12.83 30.55 16.75 39.18 17.63.2.03 18.08 2.4 33.1 3.93-1.14 2.68-2.17 6.76-.02 10.24 1.52 2.45 4.22 3.81 7.92 4.18-1.29 2.19-2.22 4.66-2.12 7.33.11 2.84 1.43 6.93 7.04 10.29 1.95 1.17 3.96 2.24 5.99 3.28-.64.89-1.23 1.86-1.65 3.05-1.28 3.65-.79 7.66 1.46 11.91 4.24 7.98 21.78 9.64 35.63 9.64.56 0 1.07-.02 1.62-.02 2.73 7.68 10.2 13.61 13.86 16.14-.19 8.33-2.28 33.4-3.16 43.26a3.993 3.993 0 0 0 3.63 4.33c.12 0 .24.01.36.01a3.99 3.99 0 0 0 3.97-3.65c.36-4.05 3.49-39.75 3.18-46.32a3.963 3.963 0 0 0-1.93-3.22c-2.55-1.54-8.33-5.87-11.22-10.83 1.73-.09 3.31-.19 4.5-.29.54-.06 5.31-.66 8.03-4.96.85-1.34 1.29-2.88 1.5-4.53 5.26 2.82 11.16 5.41 17.86 7.71.43.15.87.22 1.3.22 1.66 0 3.21-1.04 3.78-2.7.72-2.09-.4-4.36-2.48-5.08-23.59-8.1-33.67-18.15-37.8-26.37-.02-.02-.02-.05-.04-.07-2.2-4.4-2.69-8.24-2.64-10.99 6.03 2.33 12.09 4.2 16.29 4.2h.16a4 4 0 0 0 3.95-4.05 3.993 3.993 0 0 0-3.99-3.95h-.14c-6.7 0-23.95-7.87-33.3-12.85-1.4-.74-3.11-.59-4.37.4-.1.09-11.15 8.7-25.23 10.14-4.15.41-5.16-.44-5.17-.43-.27-.56.32-2.77 1.28-4.33 6.85-10.09 13.3-15.56 18.7-18.48.21-.06.38-.19.57-.28 8.44-4.34 14.19-2.44 14.55-2.32.25.1.51.18.78.22l31.64 5.56c2.2.38 4.25-1.07 4.63-3.25a4.006 4.006 0 0 0-3.24-4.63l-31.33-5.5c-1.97-.63-9.54-2.43-19.57 2.32l-45.86-4c-9.7-1.02-18.25-3.16-23.32-5.24-.13-.07-.25-.12-.39-.17-2.55-1.09-4.2-2.16-4.42-3.04-.14-.79.04-1.23.35-1.65 1.52-2.05 6.44-3.44 8.99-3.75 3.52.02 86.25.34 94.44 0h.28c5.03 0 14.42 4.78 19.52 8.01 2.99 2.97 27.5 27.39 41.84 44.36 14.43 17.07 16.14 42.64 16.14 42.66v67.13a3.99 3.99 0 1 0 7.98 0v-67.37zm-72-.9c-3.21.24-6.51.39-9.78.46-.05 0-.1-.02-.15 0-.01 0-.02.01-.04.01-15.63.29-30.64-1.47-32.68-5.32-1.16-2.17-1.49-4-1.01-5.45.33-.98 1.02-1.72 1.64-2.23 8.86 3.84 16.38 6.13 16.83 6.26 5.06 1.5 14.41 3.92 22.2 3.92 1.91 0 3.66-.21 5.3-.55-.05.57-.05 1.2-.28 1.58-.65 1.07-2.09 1.32-2.03 1.32zM134 117.57c2.39 1.23 6.35 3.2 10.84 5.21-.25 1.96-.3 4.64.14 7.73l-6.35-3.79c-1.9-1.14-4.34-.51-5.49 1.38a4.002 4.002 0 0 0 1.38 5.48l14.64 8.74c2.48 4.36 5.89 8.43 10.28 12.17-4.98-.13-12.64-1.43-20-3.61-.16-.05-16.14-4.86-28.5-12.26-2.05-1.22-3.1-2.48-3.16-3.75-.12-2.82 3.63-6.55 5.84-8.25 9.45-2.28 16.9-6.68 20.38-9.05zm-25.77-21.68c-3.02 2.65-6.14 5.9-9.32 10-15.49-1.47-36.74-4.28-37.08-4.32-14.7-1.51-31.54-6.35-32.21-10.95.69-1.67 8.58-3.57 17.11-3.57h.2c8.12 3.47 19.13 5.04 25.22 5.69z" fill="#787878" opacity="1" data-original="#787878"></path></g></g></svg>