<svg xmlns="http://www.w3.org/2000/svg" version="1.1" xmlns:xlink="http://www.w3.org/1999/xlink" width="512" height="512" x="0" y="0" viewBox="0 0 256 300" style="enable-background:new 0 0 512 512" xml:space="preserve" class=""><g><g fill="#787878"><path d="M127.46 210.68c-6.47 2.45-20.47-.6-25.32-2-2.14-.61-4.34.62-4.94 2.74-.61 2.12.61 4.34 2.73 4.94 1.49.43 11.55 3.22 20.82 3.22 3.45 0 6.79-.39 9.54-1.43 2.06-.78 3.1-3.09 2.32-5.15s-3.08-3.11-5.16-2.32z" fill="#787878" opacity="1" data-original="#787878" class=""></path><path d="M183.37 144.05c-1.38-2.7-3.3-5.53-5.39-8.29.06-10.63-1.02-48.32-19.52-49.03-7.39-.31-12.52 1.43-15.9 5.06-2.66-3.66-6.59-6.19-14.26-5.05-5.86.85-9.42 5.17-11.42 9.73-1.34-.93-2.86-1.64-4.62-1.87-2.43-.31-4.85.31-7.24 1.81V51.9c-.08-1.39-.7-8.5-5.11-11.79-2.02-1.5-4.44-1.97-7.08-1.36-9.17 2.19-11.02 14.19-11.14 15.2-.04 1.56-.79 38.27-.04 47.59.54 6.71-3.99 18.4-5.99 22.95-10.36 38.6-1.75 64.95 2.88 79.11.6 1.84 1.14 3.5 1.57 4.98 2.93 10.01.9 36.57-.13 45.96a3.998 3.998 0 0 0 3.54 4.41c.14.02.29.03.44.03 2.01 0 3.74-1.52 3.96-3.56.16-1.44 3.84-35.49-.13-49.08-.46-1.55-1.02-3.29-1.66-5.22-4.67-14.3-12.5-38.25-2.98-73.93.3-.65 7.28-16.13 6.47-26.28-.72-8.92.05-46.29.02-46.29.29-1.85 1.82-7.33 5.49-8.1.93.69 1.77 3.65 1.9 5.61v61.82c-4.33 1.75-7.81 5.85-8.61 6.86a3.994 3.994 0 0 0 .63 5.62c.73.59 1.61.88 2.49.88 1.17 0 2.33-.51 3.12-1.5.66-.82 1.51-1.66 2.38-2.42v25.15c-.1 1.07-.91 10.65 3.76 15.81 1.93 2.14 4.53 3.27 7.5 3.27 10.2 0 12.5-11.28 13.81-24.64 4.61 2.71 10.81 4.75 19.25 5.09.37 1.13.93 2.4 1.8 3.68-2.66.58-5.62 1.45-8.65 2.77.78-1.76.27-3.87-1.4-4.95a4 4 0 0 0-5.52 1.17c-.43.65-3.77 5.97-4.35 11.17-5.04 4.62-9.51 11.02-12.13 20.21-.6 2.12.63 4.33 2.75 4.94 2.15.62 4.34-.63 4.94-2.75 7.71-27 33.76-25.75 34.81-25.68 2.08.09 3.79-1.26 4.17-3.23s-.75-3.91-2.66-4.55c-6.23-2.08-6.43-6.18-6.44-6.55.04-1.1-.36-2.16-1.13-2.95a3.97 3.97 0 0 0-2.87-1.22c-.26-.01-.46 0-.69 0-20.5 0-25.48-10.96-26.63-15.13 2.15-1.05 9.18-1.28 13.5-1.41 3.54-.11 7.08-.31 10.48-.67.25-.03.5-.01.73-.08.99-.11 2.05-.17 2.99-.33 9.57-1.68 12.94 2.84 13.02 2.96.18.27.38.53.62.75.13.12 12.85 12.31 17.54 21.49 3.3 6.46-2.43 18.49-4.78 22.37-.72 1.04-17.79 25.64-22.97 41.19-5.29 15.87-1.6 45.5-1.44 46.75.25 2.02 1.98 3.49 3.96 3.49.17 0 .34-.01.52-.03a4.004 4.004 0 0 0 3.46-4.47c-.04-.29-3.62-29.08 1.1-43.22 4.81-14.46 21.77-38.91 22.08-39.36 1.16-1.89 11.11-18.81 5.21-30.37zm-75.06 15.57c-.83 0-1.22-.25-1.57-.63-1.66-1.82-2.01-6.75-1.71-10.05V107.54c3.52-4.85 5.59-5.05 6.2-4.99 1.75.22 3.81 3.28 4.81 5.7v8.95c-2.25.67-4.18 1.58-5.38 3.15-.92 1.21-1.87 3.25-1.17 6.14.51 2.11 1.86 6.16 5.17 10.2-.92 10.9-2.01 22.95-6.35 22.95zm22.3-44.03c-2.33.07-4.53.15-6.58.27v-8.37c0-.45-.07-.9-.22-1.32-.09-.26-.38-1.04-.87-2.07.46-2.47 2.07-8.79 6.51-9.45 5.76-.83 6.35.46 9.27 6.65l.28.59-1.65 13.41c-2.2.14-4.49.21-6.73.28zm33.85 5.06c-.11-.14-.3-.35-.46-.53.36-6.78-.65-11.4-.7-11.61-.5-2.15-2.67-3.51-4.77-3a4 4 0 0 0-3.02 4.77c0 .03.36 1.94.51 4.86-2.74-.85-6.25-1.22-10.52-.71l1.57-12.72c.02-.16.01-.36 0-.55v-.32c0-.09-.13-2.1 1.4-3.69 1.71-1.77 5.11-2.62 9.66-2.44 6.8.26 10.44 16.23 11.51 31.24-2.49-2.66-4.49-4.64-5.19-5.31z" fill="#787878" opacity="1" data-original="#787878" class=""></path></g></g></svg>