<svg xmlns="http://www.w3.org/2000/svg" version="1.1" xmlns:xlink="http://www.w3.org/1999/xlink" width="512" height="512" x="0" y="0" viewBox="0 0 256 300" style="enable-background:new 0 0 512 512" xml:space="preserve" class=""><g><g fill="#787878"><path d="M74.06 215c-1.47.16-2.38.18-2.35.19-32.3-2.81-30.67-40.58-30.58-42.4v-35.44a3.99 3.99 0 1 0-7.98 0v35.22c-.91 16.28 5.84 47.81 38.24 50.61.16 0 3.32-.06 7.63-.85l.04 10.5 20.87-27.29-34.01 4.87 8.15 4.61zM197.94 207.35c-10.25 6.93-18.78 5.11-19.2 5.03-2.09-.51-4.28.79-4.81 2.93s.78 4.31 2.93 4.84c.19.05 2.05.49 5.04.49 4.74 0 12.32-1.11 20.52-6.67a3.993 3.993 0 0 0 1.07-5.55c-1.23-1.84-3.72-2.3-5.55-1.07z" fill="#787878" opacity="1" data-original="#787878"></path><path d="M233.18 227.52c-.13-.35-12.55-34.92-16.45-57.8-4.01-23.47-12.64-52.83-12.73-53.12-.09-.32-.22-.63-.4-.91-.33-.55-8.09-13.45-18-19.43l-2.34-1.43c-6.13-3.78-14.86-9.14-24.02-10.53-.47-3.73-1.97-9.52-6.58-14.58-6.61-7.25-19.5-15.32-20.71-15.99-4.69-1.82-14.85-2.43-19.71 8.39-1.2 2.68-1.73 4.92-1.97 6.94-4.2-1.5-10.35-1.83-15.55 3.43-4.04 4.09-4.99 9.95-5.08 14.2-5.28-.42-11.19.42-15.63 5.05-6.23 6.51-1.74 18.58 3.28 27.76l-21.26-9.46c-3.01-1.81-18.45-10.69-27.24-7.45-2.72 1-4.64 3-5.57 5.77-4.44 13.35 15.35 22.78 17.47 23.74 12.36 6.26 45.98 24.64 53.04 34.42 9.54 13.21 32.89 32.46 44.63 36.78 5.39 1.98 14.04 22.87 18.97 41.09a4.01 4.01 0 0 0 3.86 2.95c.34 0 .69-.04 1.04-.14a3.988 3.988 0 0 0 2.81-4.9c-2.66-9.82-12.23-42.19-23.93-46.5-9.34-3.44-31.69-21.19-40.91-33.96-9.46-13.11-51.18-34.48-56.06-36.95-4.9-2.22-15.05-8.84-13.34-14.01.17-.51.37-.66.75-.8 3.85-1.43 14.41 3.22 20.79 7.02l33.83 15.08c1.63.73 3.6.27 4.74-1.15a3.992 3.992 0 0 0 .1-4.87c-8.17-11.1-14.63-25.36-11.23-28.9 5.71-5.97 18.26-.43 18.4-.44l23.38 15.78c-1.44 1.8-2.62 3.33-3.38 4.3-9.56 2.83-23.33-9.78-27.96-15.07a3.993 3.993 0 0 0-5.64-.38 3.99 3.99 0 0 0-.39 5.63c1.85 2.12 16.48 18.35 31.09 18.35 1.27 0 2.53-.16 3.79-.43 1.64 1.64 4.23 3.51 8.33 4.18 2.09.35 4.31.32 6.64-.07-8.05 5.79-18.39 6.87-18.54 6.88a4.008 4.008 0 0 0-3.61 4.35 3.995 3.995 0 0 0 3.97 3.63c.13 0 .25 0 .37-.02 1.05-.09 25.24-2.57 32.92-21.31 3.1-2 6.32-4.4 9.7-7.28.57.94 1.28 1.94 2.16 3.02-2.96 6.78-9.4 25.77 1.29 43.93 1.12 1.9 3.54 2.53 5.47 1.42a3.995 3.995 0 0 0 1.41-5.47c-10.7-18.17-.04-38.42.07-38.62.81-1.51.57-3.38-.6-4.63-2.97-3.18-3.66-4.93-3.83-5.53.63-1.46.34-3.22-.85-4.4a4 4 0 0 0-5.57-.07c-16.41 15.51-25.51 16.88-29.51 16.34-1.38-.19-2.43-.65-3.19-1.13 2.94-3.75 8.27-10.44 11.32-13.49 4.02-4.02 9.12-10.87 10.79-13.15 9.95-5.07 22.71 2.8 31.23 8.06l2.4 1.47c7.31 4.41 13.68 14.16 15.01 16.27 1.16 3.97 8.72 30.38 12.36 51.7 4.03 23.59 16.29 57.73 16.81 59.17a4.004 4.004 0 0 0 3.76 2.64c.45 0 .91-.08 1.36-.24a3.988 3.988 0 0 0 2.4-5.11zM126.65 106.38l-24.51-16.49c-.22-.1-1.99-.88-4.49-1.67-.09-3.12.34-7.67 2.77-10.13 3.66-3.72 7.87-1.33 9.06-.58 1.57.81 3.36 1.82 5.2 2.9.01 0 .06.04.07.05h.01c7.84 4.61 17.06 11.23 20.25 16.6-1.23 1.47-2.47 2.88-3.59 4-1.34 1.34-3.03 3.27-4.76 5.33zm16.48-19.35c-.49.28-.91.67-1.24 1.13-.02.03-.71.98-1.72 2.33-5.42-6.93-15.21-13.34-21.35-16.93-.77-.64-1.56-3.11.72-8.18 2.6-5.77 7.37-4.93 9.23-4.32 2.1 1.34 12.71 8.21 18 14.02 2.86 3.14 3.96 6.72 4.4 9.27-2.71.41-5.41 1.15-8.04 2.67z" fill="#787878" opacity="1" data-original="#787878"></path></g></g></svg>