<svg xmlns="http://www.w3.org/2000/svg" version="1.1" xmlns:xlink="http://www.w3.org/1999/xlink" width="512" height="512" x="0" y="0" viewBox="0 0 256 300" style="enable-background:new 0 0 512 512" xml:space="preserve" class=""><g><g fill="#787878"><path d="M126.56 229.32c-9.85 3.79-27.46-.13-27.64-.17-2.19-.51-4.29.86-4.78 3.02-.49 2.15.86 4.29 3.02 4.78.53.12 8.93 1.99 18.07 1.99 4.88 0 9.98-.54 14.2-2.16 2.06-.79 3.09-3.11 2.3-5.17s-3.1-3.09-5.17-2.29z" fill="#787878" opacity="1" data-original="#787878" class=""></path><path d="M182.58 168.57c1.45-27.58 5.83-123.77 5.88-125 0-2.19-.3-13.36-6.2-17.76-1.69-1.25-4.53-2.5-8.46-1.3-10.53 3.16-14.36 20.99-17.97 57.21-2.16-3.15-4.25-4.14-6.19-4.45-3.37-.57-5.94 1.56-7.26 3.35-.21.16-.37.39-.57.56l-26.45-47.99c-.45-.64-4.52-6.23-10.64-7.03-3.28-.44-6.45.58-9.24 2.93-8.97 7.52 1.5 30.06 5.26 37.39 2.54 8.92 8.99 31.02 14.54 45.53-4.14-1.47-8.94-2.08-13.67-.26-7.9 3.01-10.81 9.25-11.89 13.63-7.27-.66-12.99.96-16.86 5.11-8.49 9.1-4.34 25.61-3.91 27.18.22 1.12.66 3.27 1.31 5.95l-.05.83c-1.02 17.65-2.42 41.83 4.99 56.57 5.45 10.86 4.99 38.56 4.34 48.32a3.989 3.989 0 0 0 3.72 4.25c.09 0 .18.01.27.01 2.08 0 3.84-1.62 3.98-3.74.1-1.52 2.37-37.41-5.18-52.43-4.15-8.27-5.04-21.11-4.91-33.44 2.15 4.06 4.69 7.41 7.65 8.89 2.34 1.17 4.38 1.58 6.11 1.58s3.02-.38 4.06-.83c1.36-.59 2.42-1.45 3.31-2.36 1.66 1.23 3.49 2.03 5.49 2.03.24 0 .49 0 .74-.03 8.94-.69 11.85-13.61 12.15-15.08.06-.26.08-.54.08-.81v-6.62c.53-.33 1.02-.75 1.37-1.32.07-.11 6.97-11.51 15.91-19.56a3.99 3.99 0 0 0 .3-5.64c-1.49-1.65-4.02-1.78-5.64-.3-4.76 4.28-8.88 9.27-11.93 13.36v-20.39a3.99 3.99 0 1 0-7.98 0v40.04c-.89 3.84-3.13 8.22-4.86 8.35-.21.03-.63.05-1.28-.6-1.99-1.98-3.34-7.27-3.02-11.8.51-7.26-2.49-39.82-2.82-43.11 0-.32.21-7.83 7.42-10.58 6.35-2.42 14.64 3.4 17.29 5.86 1.57 1.46 3.95 1.36 5.48-.15 1.52-1.51 1.52-4 .08-5.58-2.94-3.24-11.97-30.73-19-55.42a3.19 3.19 0 0 0-.3-.74c-6.34-12.25-9.93-25.83-7.4-27.96 1.42-1.19 2.42-1.21 3.04-1.13 2.25.28 4.54 2.84 4.93 3.33l28.07 50.97c-8.36 19.25 2.51 57.52 4 62.53.63 2.11 2.87 3.33 4.96 2.69a3.99 3.99 0 0 0 2.69-4.97c-5.98-20.13-11.48-54.73-.79-61.85.37-.25.85-.72 1.21-1.17 1.27 1.42 4.49 6.64 8.02 24.84.07.38.21.75.39 1.09.19.36 17.34 33.55 17.49 56.53-.13 2.5-.24 4.49-.32 5.74-.6 9.52-9.85 21.19-15.97 28.92-2.96 3.74-5.31 6.7-6.46 9-3.51 6.96-3.04 47.94-2.81 60.33a3.993 3.993 0 0 0 3.99 3.92h.07c2.2-.04 3.96-1.87 3.92-4.07-.46-24.78.15-52.72 1.96-56.59.79-1.57 3.13-4.52 5.6-7.64 7.07-8.92 16.69-21.1 17.62-33.01 0-.03.02-.05.03-.08 0-.07 0-.14.02-.21 0-.03.01-.06.01-.09 0-.08.01-.21.02-.3.21-1.75.3-3.56.3-5.42zm-90.57 17.74c-1 .42-2.38-.08-3.37-.58-4.2-2.11-9.43-17-11.92-29.87-.97-3.58-2.69-14.94 1.97-19.93 2.16-2.31 5.78-3.13 10.66-2.62 1.03 11.48 2.89 33.95 2.53 39.02-.26 3.64.37 8.16 1.88 12.11-.38.71-.96 1.54-1.74 1.87zm72.45-77.96c-.73-3.72-1.47-6.96-2.2-9.85 2.28-25.52 5.7-63.91 13.82-66.34.93-.28 1.22-.07 1.39.06 1.93 1.43 2.98 7.52 2.99 11.17-.04.79-2.46 54.17-4.3 92.81-4.66-13.74-10.34-25.2-11.7-27.85z" fill="#787878" opacity="1" data-original="#787878" class=""></path></g></g></svg>