<svg xmlns="http://www.w3.org/2000/svg" version="1.1" xmlns:xlink="http://www.w3.org/1999/xlink" width="512" height="512" x="0" y="0" viewBox="0 0 256 300" style="enable-background:new 0 0 512 512" xml:space="preserve" class=""><g><g fill="#787878"><path d="M96.97 212.48c-6.34 1.99-17.52-1.01-21.27-2.34-2.09-.74-4.37.35-5.1 2.43-.74 2.08.35 4.36 2.43 5.1 1.25.44 10.09 3.47 18.67 3.47 2.66 0 5.3-.29 7.67-1.04 2.1-.66 3.28-2.91 2.61-5.01s-2.93-3.28-5.02-2.61z" fill="#787878" opacity="1" data-original="#787878"></path><path d="M204.72 129.39c-11.66-5.82-28.76-.4-52.23 16.55l-4.63-54.24-2.89-37.46c-1.29-8.18-6.49-21.6-17.2-19.94-.48.1-11.61 2.8-12.17 21.4-.32 10.56 1.22 34.63 2.31 49.96-3.58-2.94-8.23-4.99-13.88-3.82-4.29.34-11.88 3.75-15.31 13.31-1.18-.73-2.52-1.33-4.03-1.64-3.19-.65-6.39.12-9.32 2.2-2.41 1.72-4.04 4.07-5.14 6.62-2.96-1.96-7.07-3.52-12.14-2.3-10.46 2.49-12.23 17.47-12.39 19.17-.03.32-.02.65.02.97.05.32.47 3.05 1.28 6.9-3.89 37.45 1.56 55.74 5.17 63.32 3.15 6.62 3.19 33.5 2.47 48.89-.1 2.21 1.6 4.08 3.81 4.18h.19c2.13 0 3.89-1.67 3.99-3.81.2-4.28 1.8-42.1-3.25-52.69-2.08-4.37-6.06-15.89-5.69-38.94 1.23 2.51 2.61 4.78 4.15 6.59 3.31 3.87 6.9 5.83 10.65 5.83h.36c1.31-.04 2.49-.33 3.53-.73 1.05 2.08 2.56 4.27 4.77 5.63 1.49.91 3.11 1.38 4.81 1.38.87 0 1.75-.12 2.64-.37 2.01-.55 3.8-1.48 5.39-2.56-1.32 2.44-2.49 5.03-3.41 7.81a3.996 3.996 0 0 0 3.8 5.24c1.68 0 3.25-1.07 3.8-2.75 6.78-20.65 30.08-30.89 30.31-30.99a4.015 4.015 0 0 0 2.1-5.25 4.001 4.001 0 0 0-5.25-2.1c-.4.17-4.14 1.81-9.09 5 1.46-8.22 2.94-19.66 1.77-27.88a3.98 3.98 0 0 0-4.52-3.39c-2.18.31-3.7 2.34-3.39 4.52 1.52 10.66-2.29 28.78-3.43 33.82-2.1 1.53-3.9 2.23-5.25 1.89-1.21-.29-2.06-1.44-2.46-2.09-.22-4.95-1.22-30.11.02-44.31 1.07-12.22 8.84-13.42 10.14-13.57 8.5-1.76 14.06 10.68 14.12 10.81a3.984 3.984 0 0 0 4.64 2.28c1.9-.47 3.17-2.24 3.02-4.19-.04-.47-3.78-47.39-3.32-62.7.37-11.98 5.78-13.79 5.64-13.79 3.75-.59 7.05 8.4 7.81 13.02l8.1 98.6a3.982 3.982 0 0 0 2.37 3.32c1.34.6 2.9.4 4.05-.49 23.15-17.77 40.28-24.71 49.59-20.07 1.19.6 1.19 1.15 1.19 1.49 0 1.77-1.93 4.35-4.05 5.41l-1.29.63c-6.99 3.39-23.35 11.35-29.21 26.49-4.81 12.4-17.26 22.38-19.31 23.96-3.18 1.51-23.6 11.32-30.69 18.13-7.92 7.6-5.48 39.87-4.54 49.58.2 2.07 1.94 3.61 3.97 3.61.13 0 .26 0 .39-.02 2.2-.21 3.81-2.16 3.6-4.36-1.75-18.13-1.31-39.75 2.12-43.05 5.46-5.24 22.74-13.93 28.93-16.84.24-.11.46-.24.67-.4.66-.49 16.24-12.06 22.31-27.73 4.73-12.22 19.12-19.21 25.26-22.19l1.37-.67c4.22-2.11 8.48-7.1 8.48-12.56 0-3.7-2.05-6.85-5.61-8.63zM68.56 172.44c-1.13.06-2.94-1.05-4.64-3.03-5.58-6.51-9.18-23.3-10.21-29.89.48-3.74 2.49-10.82 6.23-11.71 4.03-.97 7.07 1.86 8.28 3.23-.35 4.43.12 8.14.23 8.78l1.84 31.97c-.47.33-1.07.65-1.74.66zm13.95 6.19c-.63.18-.92.04-1.15-.1-1.45-.88-2.69-4.04-3.01-5.31l-1.95-34.24c-.51-3.32-.94-13.52 3.61-16.76 1.48-1.05 2.47-1 3.05-.88 1.54.31 3 1.73 3.87 2.79-1.23 16.48.04 43.56.1 44.74.02.45.12.9.29 1.32.12.3.76 1.75 2.05 3.32-1.49 1.91-3.86 4.31-6.86 5.13z" fill="#787878" opacity="1" data-original="#787878"></path></g></g></svg>