<svg xmlns="http://www.w3.org/2000/svg" version="1.1" xmlns:xlink="http://www.w3.org/1999/xlink" width="512" height="512" x="0" y="0" viewBox="0 0 256 300" style="enable-background:new 0 0 512 512" xml:space="preserve"><g><g fill="#787878"><path d="M134.58 200.19c-14.91 1.8-26.59.04-26.7.02a3.99 3.99 0 0 0-4.57 3.33 4.006 4.006 0 0 0 3.33 4.57c.34.05 5.84.9 14.19.9 4.26 0 9.27-.22 14.7-.88 2.19-.27 3.75-2.26 3.49-4.45s-2.38-3.76-4.44-3.49z" fill="#787878" opacity="1" data-original="#787878"></path><path d="M188.08 109.44c-1.1-50.2-13-58.43-25.73-59.73-6.75-.69-11.59 3.66-14.65 7.75-3.33-4.03-8.77-7.35-16.74-5.8-4.39.85-7.43 3.12-9.56 5.97-5.44-3.92-13.96-2.34-14.72-2.19-1.11.16-9.35 1.91-12.5 17.03-6.43-.76-15.72-.8-18.69 4.72-1.87 3.49-.51 7.21 1.72 10.49-.14.08-.28.12-.42.21-7.75 4.71-8.4 13.27-7.4 20.05-19.79 22.38 6 84.77 6.27 85.41 4.44 10.35 6.09 41.85 6.35 53.12a3.99 3.99 0 0 0 3.99 3.9h.09a3.985 3.985 0 0 0 3.9-4.09c-.04-1.72-1.04-42.19-6.99-56.08-7.17-16.74-18.07-54.41-10.75-72.12.53 1.04 4.45 8.74 10.24 19.41 5.36 9.89 11.67 12.99 17.5 12.99 3.24 0 6.32-.96 9-2.25 4.4-2.12 5.03-7.01 4.66-11.21.87.11 1.76.21 2.72.21 2.04 0 4.22-.39 6.35-1.21-2.9 9.04-2.49 21.12-1.18 31.5.15 2.07 1.87 3.71 3.99 3.71s3.99-1.79 3.99-4c0-.17-.09-1.02-.1-1.18-1.88-14.82-.79-26.49 2.78-31.83 1.59.87 3.35 1.42 5.33 1.42.64 0 1.3-.05 1.99-.17 6.06-1.01 9.46-3.78 11.47-7.14 1.51 1.87 3.33 3.54 5.48 4.41 1.1.44 2.22.67 3.35.67 1.31 0 2.6-.31 3.87-.91 5.91-2.85 9.35-10.47 10.95-24.55 16.43 10.76 10.85 25.22 10 27.19-.13.37-13.79 37.49-21.17 50.82-7.97 14.39-5.13 55.99-4.78 60.69a4 4 0 0 0 3.98 3.7c.1 0 .2 0 .31-.01 2.2-.16 3.85-2.08 3.69-4.28-.9-12.1-1.99-45.79 3.79-56.22 7.68-13.87 21.12-50.39 21.58-51.68.09-.2 6.53-15.21-3.95-28.73zM93.15 80.41c-.08 1.15-.15 2.32-.18 3.58-.03 1.5-.01 3.01.05 4.51-1.52-1.01-3.19-1.88-5.03-2.37-.67-.18-1.35-.24-2.02-.32-2.78-3.13-3.3-4.68-3.46-4.75 1.15-.93 5.78-1.15 10.64-.65zm12.39 60.62c-5.74 2.76-10.64 2.56-16-7.35-6.08-11.21-10.14-19.2-10.14-19.2-.13-.31-6.11-15.1 1.56-19.77 1.07-.65 2.09-.9 3.11-.96.03 0 .05.02.08.02h.05c.57-.02 1.13-.07 1.72.08 3.93 1.04 7.36 5.67 8.65 7.84 2.97 15.93 9.11 29.11 10.2 31.37 1.08 3.42 1.28 7.26.77 7.97zm5.9-12.59c-2.46-5.43-10.87-25.43-10.48-44.29.39-18.81 7.03-20.82 7.11-20.84 1.95-.4 6.87-.75 8.81.84.24.2.76.69.81 2.12-.66 3.22-.76 6.38-.5 8.75l3.43 39.87c.22.97 1.22 5.07 3.27 9.37-.85 1.96-1.96 3.46-3.55 4.2-2.87 1.33-6.67.65-8.89-.02zm26.77-.84c-2.39.34-4.6-2.18-6.33-5.3-.02-.03-.03-.07-.05-.1-1.64-2.97-2.84-6.45-3.34-8.54l-3.34-39.37v-.08c-.05-.53-1.25-13.05 7.34-14.71.81-.16 1.57-.23 2.28-.23 5.97 0 8.26 5.12 8.87 6.91.26 4.62 2.2 39.68 2.2 47.82 0 9.91-1.49 12.57-7.61 13.6zm37.14-28.46c.24-4.55.39-9.45.37-15.09 0-2.2-1.79-3.98-3.99-3.98h-.01c-2.2 0-3.99 1.8-3.98 4.01.1 31.04-4.03 39.56-8.26 41.26-1.98-.8-4.49-5.09-5.71-8.15.04-1.13.05-2.21.05-3.2 0-8.25-1.84-41.62-2.18-47.79 1.08-2.22 4.88-9.14 9.91-8.55 5.38.55 16.22 1.67 18.3 44.2-1.37-.94-2.87-1.84-4.49-2.72z" fill="#787878" opacity="1" data-original="#787878"></path></g></g></svg>