<svg xmlns="http://www.w3.org/2000/svg" version="1.1" xmlns:xlink="http://www.w3.org/1999/xlink" width="512" height="512" x="0" y="0" viewBox="0 0 256 300" style="enable-background:new 0 0 512 512" xml:space="preserve" class=""><g><g fill="#787878"><path d="M134.57 198.18c-8.49 4.58-24.38 2.44-29.77 1.24-2.12-.47-4.29.87-4.77 3.03-.49 2.15.87 4.29 3.02 4.77.52.12 8.01 1.76 16.72 1.76 6.28 0 13.2-.85 18.59-3.76a3.99 3.99 0 0 0 1.62-5.41 3.979 3.979 0 0 0-5.41-1.63z" fill="#787878" opacity="1" data-original="#787878"></path><path d="M186.04 106.75c.04-6.4-.3-26.83-5.84-36.06-7.28-12.12-14.29-18.13-21.69-17.88-4.45.05-8.56 2.39-12.32 6.82-3.9-6.73-10.76-13.47-20.59-11.19-9.88 2.29-14.37 8.08-16.4 19.02-6.41-3.6-13.68-6.22-18.36-2.33-5.15 4.29-3.2 13.53-1.27 19.38-2.68 1.33-5.11 3.5-7.19 6.69-4.1.37-12.32 2.02-17.22 9.14-3.78 5.49-4.58 12.9-2.44 22.25-5.39 25.53 3.14 50.03 11.23 68.56 4.93 11.3 3.75 44.66 2.88 56.57a3.997 3.997 0 0 0 3.69 4.28c.1 0 .19.01.3.01 2.07 0 3.82-1.6 3.98-3.71.13-1.82 3.2-44.93-3.52-60.35-4-9.14-12.18-28.23-12.12-49.22l13.72 20.9c.51.79 5.21 7.77 12.69 8.35.34.02.66.04.99.04 2.61 0 5.11-.9 7.51-2.5 3.5 5.81 8.03 9.84 15.52 10.22.24.01.48.02.71.02 2.17 0 4.04-.69 5.73-1.69 2.53 2.34 6.85 5.79 12.76 8.56.55.26 1.13.38 1.69.38 1.5 0 2.94-.85 3.62-2.31.93-2 .07-4.38-1.93-5.31-5.27-2.46-9.02-5.57-11-7.45 1.76-4.6 1.38-9.62 1.32-10.37l-1.48-14.49c.1 0 .2.02.3.02 2.44-.09 6.28-.97 9.61-4.66 1.43 1.2 3.17 1.86 5.04 1.86.6 0 1.21-.06 1.82-.19 7.2-1.49 10.51-3.4 13.47-10.11l7.86 4.11c.59.31 1.22.46 1.85.46 1.43 0 2.83-.78 3.54-2.15a3.99 3.99 0 0 0-1.69-5.39l-8.83-4.62c.52-1.73 1.06-3.6 1.64-5.72 1.38-5.01 2.34-9.72 3.03-14.01 4.27 2.46 7.54 5.13 10.09 7.85.24.36.51.68.86.95 9.83 11.28 7.22 23.04 7.09 23.57-.1.31-9.52 31.63-20.21 44.31-12.01 14.23-10.9 63.24-10.74 68.78.07 2.16 1.84 3.88 3.99 3.88h.12a3.99 3.99 0 0 0 3.87-4.11c-.42-14.21.35-53.3 8.86-63.39 11.77-13.95 21.36-45.82 21.81-47.33.05-.21 3.78-15.93-8.35-30.42zm-90.1-35.48s2.58-1.09 12.15 4.85c-.26 3.49-.4 7.4-.45 11.68-2.8-2.15-6.24-4.01-10.06-4.56-2-5.62-2.61-11.02-1.64-11.97zm.26 88.74c-3.02-.22-5.81-3.49-6.63-4.74l-15.61-23.64c-5.11-12.15-5.89-21.39-2.25-26.72 2.39-3.51 6.32-4.87 9.21-5.42 1.07 16.21 7.7 31.24 12.72 42.46 1.51 3.38 2.89 6.47 3.94 9.21.96 2.49 1.91 4.87 2.88 7.17-1.52 1.21-2.99 1.79-4.26 1.7zm28.33-1.68c.17 1.98-.05 6.68-1.87 8.56-.43.44-1.15.92-2.67.86-7.25-.37-9.96-6.59-14.94-19.49-1.1-2.85-2.54-6.06-4.11-9.59-5.33-11.95-11.9-26.75-12.19-42.52 1.96-3.22 4.11-5.01 6.42-5.17 4.73-.37 10.21 5.13 12.57 7.96.6 5.72 3.03 26.99 6.02 33.31 1.52 3.23 4.99 6.52 8.99 8.62l1.79 17.45zm6.48-23.23c-4.37.04-8.79-3.63-10.03-6.25-2.01-4.26-4.37-21.67-5.4-31.74-.15-33.61 2.26-38.68 11.82-40.89 8.24-1.86 12.89 9.03 13.97 11.92l-4.87 51.21c-.18 1.9-.42 6.39.36 10.72-2.18 4.83-4.92 5-5.85 5.03zm39.34-52.7c-.06-2.21-2.05-3.89-4.11-3.88-2.2.06-3.94 1.9-3.88 4.1 0 .15.32 14.55-4.46 31.93-4.46 16.21-5.14 16.35-11.88 17.79-1.14-.82-2.1-6.47-1.57-12.24l4.87-51.21c2.28-3.83 5.61-8.05 9.28-8.09 3.02-.22 7.75 2.36 14.74 14.01 2.98 4.96 4.14 15.84 4.52 24.36-2.35-1.72-5.1-3.34-8.12-4.89.69-6.96.61-11.52.6-11.86z" fill="#787878" opacity="1" data-original="#787878"></path></g></g></svg>