<svg xmlns="http://www.w3.org/2000/svg" version="1.1" xmlns:xlink="http://www.w3.org/1999/xlink" width="512" height="512" x="0" y="0" viewBox="0 0 256 300" style="enable-background:new 0 0 512 512" xml:space="preserve"><g><g fill="#787878"><path d="M190.1 238.42c-.1-.39-10.46-39.02-7.58-55.95l1.24-6.99c3.31-18.25 7.83-43.24 2.22-62.87-6.21-21.72-20.82-43.31-21.18-43.77-.16-.32-4.13-7.92-14.7-11-12.01-3.49-27.25.1-45.29 10.62-9.27 1.25-11.42 2.68-16.45 9.88l-6.45 11.45c-1.8-1.13-3.58-2.01-5.26-2.26-2.37-.32-4.54.26-6.28 1.74-9.2 7.81-1.9 24.29-.84 26.51.13.22 13.11 21.88 19.51 42.58 7.01 22.65 16.35 37.56 25.31 50.89 8.63 12.83 8.2 29.92 8.2 30.09a3.992 3.992 0 0 0 3.87 4.12h.13c2.15 0 3.92-1.7 3.99-3.86.02-.55.19-9.69-2.92-20.2 3.45 1.63 7.39 2.9 11.85 3.06h.14a3.997 3.997 0 0 0 .14-7.99c-10.56-.37-18.33-9.21-18.9-9.88-8.59-12.79-17.52-27.09-24.18-48.6-6.69-21.65-19.73-43.43-20.09-43.96-1.9-4.11-4.66-13.6-1.22-16.6 1.89-.26 6.43 3.87 11.36 9.66.1.14.21.27.33.39 2.63 3.12 5.34 6.73 7.78 10.43.15.23.33.45.52.64 6.53 6.49 17.31 18.86 18.4 24.41.28 1.41 1.32 2.53 2.68 2.99 1.37.46 2.9.12 3.97-.84.18-.16 4.51-3.97 15.58-3.24 1.02.1 2.21-.32 3.02-1.1.81-.77 1.26-1.85 1.23-2.97 0-.17-.33-16.75 3.09-25.34.53-1.33.31-2.84-.58-3.96-3.27-4.13-8.12-11.77-8.12-15.06 0-2.12-1.65-3.86-3.76-3.99-4.37-.26-16.78-1.35-21.73-3.31a4.005 4.005 0 0 0-4.36.96c-3.56 3.73-9.75 9.62-13.91 12.5-.86-.94-1.75-1.83-2.64-2.71l7.05-12.5q3.72-5.29 17.7-6.85l7.93-.9c20.82-2.47 28.09 7.49 28.53 8.1l30.45 39.87c2.32 16.62-1.24 36.43-3.96 51.48l-1.26 7.08c-3.17 18.65 7.29 57.72 7.74 59.37.49 1.78 2.1 2.96 3.86 2.96.34 0 .69-.04 1.04-.14a3.992 3.992 0 0 0 2.81-4.9zM108.76 92.4c5.66 1.57 13.89 2.41 18.44 2.78 1.52 5.36 5.61 11.38 7.9 14.5-2.22 7.12-2.75 16.69-2.87 22.11-5.65.12-9.77 1.3-12.58 2.53-4.72-9.18-15.97-20.71-18.4-23.16a135 135 0 0 0-5.31-7.43c4.7-3.36 10.05-8.54 12.82-11.33zm20.59-26.1c8.28-2.28 14.26-1.97 18.25-.86 7.31 2.03 9.99 6.86 10.34 7.46.11.16 8.5 12.57 15.07 27.55l-17.09-22.36c-.34-.52-7.56-11.05-26.57-11.79z" fill="#787878" opacity="1" data-original="#787878"></path><path d="M176.43 136.8c1.31-12.27-5.51-15.22-6.29-15.51-2.06-.78-4.51.21-5.28 2.27-.78 2.07.13 4.31 2.19 5.09.02.01 2.08 1.33 1.45 7.3-.24 2.19 1.35 4.16 3.55 4.4.14.01.29.02.43.02 2.02 0 3.75-1.52 3.96-3.57z" fill="#787878" opacity="1" data-original="#787878"></path></g></g></svg>