<svg xmlns="http://www.w3.org/2000/svg" version="1.1" xmlns:xlink="http://www.w3.org/1999/xlink" width="512" height="512" x="0" y="0" viewBox="0 0 256 300" style="enable-background:new 0 0 512 512" xml:space="preserve"><g><g fill="#787878"><path d="M191.95 164.98c-1.98-.94-4.37-.09-5.33 1.9-2.17 4.58-10.9 9.57-15.9 11.63a4 4 0 0 0-2.17 5.22 4.004 4.004 0 0 0 3.69 2.47c.51 0 1.02-.1 1.52-.3 1.61-.66 15.87-6.74 20.08-15.59.94-1.99.1-4.37-1.9-5.32z" fill="#787878" opacity="1" data-original="#787878"></path><path d="M228.8 170.68c2.69-13.02-4.78-39.94-12.55-52.02-7.82-12.18-50.64-53.54-52.68-55.49-.64-.53-16.01-12.97-35.54-6.73-17.41 5.59-86.52 26.09-86.93 26.23-2.71.59-11.72 2.96-13.97 8.79-.98 2.53-.54 5.29 1.23 7.77 5.44 7.63 22.7 7.03 35.37 5.38-.19 1.13-.26 2.32.02 3.59 1.07 4.95 5.87 8.65 14.38 11.21-3.2 6.75-9.39 20.07-13.4 30.44-4.01 10.34-4.81 18.19-2.39 23.33 1.3 2.75 3.37 4.27 5.14 4.84.89.22 1.79.32 2.7.32 13.4 0 29.31-22.63 35.84-32.89.62.43 1.25.86 1.92 1.28.85 22.36 37.96 28.48 48.3 29.73 3.02 11.57-3.43 41.99-8.55 59.58-.62 2.12.6 4.34 2.72 4.95a4.002 4.002 0 0 0 4.96-2.72c1.53-5.25 14.75-51.78 7.38-67.24a4.003 4.003 0 0 0-3.26-2.27c-.4-.03-34.64-3.39-42.2-17.21 8.35 3.64 17.48 6.25 23.62 7.56.28.06.56.09.84.09 1.84 0 3.5-1.29 3.9-3.16.46-2.16-.92-4.28-3.08-4.74-17.62-3.76-34.72-11.88-37.34-17.72-.67-1.5-.34-2.1-.19-2.35 1.04-1.9 5.29-3.34 8.1-3.82 6.93.84 14 1.09 20.03.08 3.5 7.64 14.02 26.56 35.28 34.78a3.983 3.983 0 0 0 5.16-2.29c.8-2.06-.22-4.37-2.28-5.17-22.91-8.86-31.92-33.04-32-33.28-.72-1.96-2.82-3.05-4.81-2.5-16.97 4.62-50-6.16-50.67-6.36-11.21-2.68-12.21-5.81-12.29-6.16-.23-1.04.88-2.54 1.83-3.48.9-.18 1.73-.34 2.4-.49 1.77-.08 9.25-.51 18.26-1.74 39.07-2.82 67.09 5.43 67.36 5.51a3.996 3.996 0 0 0 4.98-2.67c.64-2.11-.55-4.34-2.66-4.98-.85-.26-15.58-4.6-38.67-6.01 2.23-1.15 4.16-2.44 5.67-3.86 1.6-1.52 1.67-4.05.16-5.65a4.006 4.006 0 0 0-5.65-.15c-8.34 7.9-38.8 11.03-50.45 11.65-21.43 4.47-37.39 3.44-40.19-.32.48-1.14 4.55-3.05 8.49-3.93.7-.21 69.89-20.74 87.38-26.35 15.29-4.91 27.5 4.87 27.77 5.07.44.42 43.96 42.46 51.28 53.86 7.4 11.53 13.5 36.07 11.44 46.08-2.4 11.67-.18 69.93-.08 72.4a3.998 3.998 0 0 0 3.99 3.84h.16c2.2-.09 3.92-1.94 3.84-4.15-.64-16.58-1.91-61.58-.08-70.48zM97.96 136.85c.49 1.1 1.21 2.15 2.04 3.18-8.81 14.04-23.62 32.02-29.89 30.47-.99-.67-2.72-5.36 2.08-17.77 4.12-10.63 10.8-24.9 13.74-31.08 3.26.95 8.14 2.27 13.81 3.48-.64.67-1.22 1.4-1.67 2.22-1.1 1.99-2.01 5.25-.1 9.49z" fill="#787878" opacity="1" data-original="#787878"></path></g></g></svg>