<svg xmlns="http://www.w3.org/2000/svg" version="1.1" xmlns:xlink="http://www.w3.org/1999/xlink" width="512" height="512" x="0" y="0" viewBox="0 0 256 300" style="enable-background:new 0 0 512 512" xml:space="preserve" class="hovered-paths"><g><path fill="#787878" d="M237.83 146.54c4.46-21.1-7.08-53.84-25.47-59.69-15.43-4.91-80.39-27.5-81.01-27.71-.9-.33-22.44-7.83-34.78 4.5-1.87 1.87-4.23 4.13-6.9 6.69-12.82 12.28-32.2 30.83-40.12 46.85-9.01 18.19-29.37 46.94-29.71 47.43-2.4 3.87-7.62 13.46-4.16 18.81.91 1.41 3.22 3.71 8.08 3.03 14.95-1.99 32.12-16.64 38.82-22.85 1.7-1.58 3.62-3.71 5.61-6.04.33 1.15.8 2.28 1.5 3.37 3.02 4.74 8.88 7.12 17.6 7.35-8.19 10.34-12.28 20.63-8.37 27.56 2.47 4.4 6.74 5.93 11.58 5.93 7.8 0 17.07-3.99 22.63-6.39 1.36-.59 2.42-1.05 3.05-1.26 2.48-.8 5.33-3.34 10.58-8.12 5.7-5.2 13.51-12.31 20.62-15.67 2.25-1.06 4.28-2.07 6.18-3 .34-.17.6-.29.93-.45v68.4a3.99 3.99 0 1 0 7.98 0V163.3c2.21-.86 4.45-1.55 6.82-1.98 9.08 8.25 23.73 9.69 32.41 9.69 3.96 0 6.68-.28 7.02-.32 2.19-.24 3.78-2.21 3.54-4.4s-2.18-3.84-4.4-3.54c-.18.02-13.93 1.43-24.95-2.49 12.97-1.57 32.21-7.69 34.88-16.1.66-2.1-.49-4.33-2.59-5-2.09-.67-4.34.49-5.02 2.58-1.18 3.62-19.71 10.94-32.64 10.94-.49 0-.94-.01-1.38 0-1.94 0-3.59.21-5.28.4-.42-.04-.83 0-1.24.09-7.3 1-12.78 3.61-19.64 7-1.85.92-3.84 1.9-6.05 2.94-8.18 3.87-16.5 11.45-22.58 16.98-2.91 2.65-6.54 5.96-7.67 6.43-.78.25-2.08.8-3.75 1.52-14.04 6.05-22.12 7.34-24.09 3.88-3.49-6.21 10.18-27.39 35.53-42.79 25.39-15.43 30.8-40.23 31.02-41.28.45-2.16-.93-4.27-3.09-4.72-2.19-.48-4.27.93-4.73 3.08-.03.17-2.98 13.22-14.3 25.42-2.63-12.65.13-35.73 1.63-44.57.37-2.18-1.1-4.24-3.28-4.61-2.13-.33-4.23 1.1-4.61 3.27-.19 1.17-3.63 21.9-2.64 38.66-6.82-.57-11.63-2.27-13.48-5.04-1.77-2.63-.6-5.7-.57-5.79.57-1.37.34-2.95-.61-4.1a3.972 3.972 0 0 0-3.91-1.35c-7.02 1.5-15.66 12.19-29.06 29.61-6.32 8.23-12.3 16-16.63 20.02-12.58 11.67-25.78 19.63-34.45 20.79-.07 0-.15.02-.21.02.22-2.01 1.99-6.26 3.99-9.52.85-1.2 20.94-29.55 30.23-48.31 7.3-14.76 26.06-32.73 38.48-44.62 2.71-2.6 5.11-4.9 7.02-6.81 8.76-8.75 26.27-2.68 26.47-2.61.66.23 65.72 22.85 81.25 27.79 13.19 4.2 24.07 31.53 20.07 50.42-4.35 20.55 3.17 91.95 3.5 94.97a4.001 4.001 0 0 0 3.96 3.58c.14 0 .28 0 .43-.02 2.19-.24 3.78-2.2 3.55-4.4-.07-.73-7.71-73.15-3.62-92.47zm-114.09-8.83c-1.99 1.6-4.12 3.15-6.49 4.59-1.25.76-2.5 1.57-3.73 2.39-1.08-3.02-2.63-9.11.29-13.48 2.53.61 5.36 1.03 8.52 1.21.36 1.93.84 3.68 1.41 5.29zm-24.36-18.22c.34 1.39.92 2.81 1.81 4.17 1.22 1.87 3.07 3.35 5.19 4.64-1.52 2.88-2.16 5.89-2.19 8.78h-9.77c-2.21 0-3.99 1.79-3.99 4s1.78 4 3.99 4h10.84c.58 2.06 1.2 3.59 1.56 4.39-4.34 3.3-8.43 6.87-12.12 10.55-13 1.31-17.06-1.52-18.26-3.38-2.18-3.38.55-9.52 1.74-11.53.65-.84 1.28-1.66 1.94-2.52 5.74-7.47 13.63-17.72 19.27-23.1z" opacity="1" data-original="#787878" class="hovered-path"></path></g></svg>