<svg xmlns="http://www.w3.org/2000/svg" version="1.1" xmlns:xlink="http://www.w3.org/1999/xlink" width="512" height="512" x="0" y="0" viewBox="0 0 256 300" style="enable-background:new 0 0 512 512" xml:space="preserve" class=""><g><g fill="#787878"><path d="M128.74 219.48c-14.39 4.01-25.66.13-25.77.09a4.01 4.01 0 0 0-5.11 2.41 3.99 3.99 0 0 0 2.39 5.11c.37.13 6.26 2.22 15.16 2.22 4.5 0 9.77-.53 15.48-2.13 2.13-.59 3.37-2.8 2.78-4.92s-2.78-3.37-4.93-2.77z" fill="#787878" opacity="1" data-original="#787878"></path><path d="M181.75 148.05c-.61-.93-1.41-2.01-2.16-3.06.02-44.01-6.07-58.19-7.54-60.95-1.94-5.41-4.3-11.2-6.77-16.87l10.78-16.8c.45-.9 4.3-8.95 1.48-15.01-.91-1.96-2.88-4.5-7.09-5.5-7.65-1.86-14.71 3.7-19 8.18-1.59-3.11-2.65-5.12-2.88-5.52-5.9-8.18-17-21.25-24.51-16.67-6.76 4.05-6.08 8.91-5.37 14.06.16 1.13.34 2.4.47 3.84.5 5.29 6.34 20.25 10.83 31.15-3.98 6.3-11.47 18.72-11.47 18.72l.09.05c-.79.9-1.46 1.93-2.04 3.04-3.41-2.26-7.92-3.3-13.23-.97-9.23 4.06-9.08 21.3-8.16 31.22-3.67-1.51-7.82-1.99-11.59.31-7.79 4.78-8.17 19.18-8.12 22.56.03.19.24 1.54.71 3.62-1.03 4.58-5.69 26.41-6.72 51.75-.43 10.25 3.18 15.59 6.36 20.3 2.67 3.97 4.98 7.39 5.41 13.99 1.02 15.83 0 47 0 47.31a4.006 4.006 0 0 0 3.86 4.13h.13c2.15 0 3.92-1.71 3.99-3.86.04-1.3 1.04-31.88 0-48.09-.57-8.76-3.86-13.64-6.76-17.94-2.96-4.4-5.31-7.88-4.99-15.51.58-14.26 2.39-27.55 3.98-37.03 1.98 4.25 4.52 8.76 7.95 13.13 4.35 5.55 9.61 12.24 16.38 12.24 1.25 0 2.55-.22 3.9-.73 3.21-1.19 5.12-4.52 6.27-8.48.18 4.63 1.09 10.05 3.33 16.34a4.005 4.005 0 0 0 3.87 2.98 3.99 3.99 0 0 0 3.99-4c0-.46-.29-1.55-.44-1.99-3.92-10.91-3.08-18.71-1.65-23.39 5.78-2.77 8.31-10.39 8.6-11.34.15-.48.2-.98.16-1.48l-.6-7.59c4.11 5.59 9.02 10.92 14.96 15.52a3.979 3.979 0 0 0 5.6-.72 4.006 4.006 0 0 0-.71-5.61c-24.09-18.63-30.09-50.9-30.38-58.56s0-.01 0-.02c-.14-3.86 2-6.71 3.6-7.04 1.55-.38 3.53 1.97 5.03 5.71 3.9 9.76 15.88 24.22 27.47 38.21 6.64 8.01 12.9 15.56 16.31 20.75 7.72 11.73.25 24.34-.28 25.25 0 0-14.07 29.78-19.25 40.15-5.49 10.99-3.96 58.08-3.76 63.41a3.986 3.986 0 0 0 3.99 3.85h.14a3.993 3.993 0 0 0 3.85-4.14c-.7-19.36-.53-52.64 2.93-59.55 5.17-10.34 19.14-39.91 19.12-39.92.46-.76 10.47-17.43-.07-33.44zM168.58 37.63c1.34.32 1.6.87 1.71 1.1.87 1.84-.31 5.9-1.16 7.69l-7.75 12.05c-2.14-4.64-4.22-8.96-6.08-12.74 2.99-3.6 8.76-9.18 13.28-8.1zm-61.69 138.02c-3.05 1.14-6.55-3-11.5-9.32-9.62-12.25-11.91-27.05-11.96-27.06 0-5.05 1.37-13.36 4.35-15.18 2.5-1.55 6.7 1.29 8.74 2.98 1.36 7.77 4.93 22.8 13 32.12.17 7.58-1.07 15.37-2.64 16.46zm18.88-24.05c-.91 2.45-2.82 5.59-4.57 6.01-1.14.26-2.9-.71-4.84-2.72-10.04-10.36-12.61-33.4-12.65-33.78-1.72-11.92-.97-26.37 2.85-28.05 4.62-2.04 7.19 1.26 8.19 3.02.41 6.25 2.81 19 9.18 32.53zm4.05-71.2c1.27-2.09 2.64-4.32 3.96-6.47l1.1 2.57 2.06 10.37c-2.27-3.88-4.85-5.67-7.12-6.47zm19.25 26.49-6.43-32.37a3.8 3.8 0 0 0-.25-.81c-5.64-12.97-14.78-35.5-15.27-40.71-.15-1.57-.34-2.95-.52-4.19q-.66-4.77.99-5.93c2.28.16 9.2 6.99 14.2 13.85.15.29 15.23 28.94 23.15 50.98.06.11 5.61 10.52 6.52 46.84-2.1-2.57-4.27-5.22-6.54-7.95-5.35-6.46-11.06-13.35-15.86-19.7z" fill="#787878" opacity="1" data-original="#787878"></path></g></g></svg>