<svg xmlns="http://www.w3.org/2000/svg" version="1.1" xmlns:xlink="http://www.w3.org/1999/xlink" width="512" height="512" x="0" y="0" viewBox="0 0 256 300" style="enable-background:new 0 0 512 512" xml:space="preserve"><g><g fill="#787878"><path d="M123.06 198.3c-6.28 2.38-22.21.65-27.8-.21-2.16-.35-4.22 1.15-4.56 3.34a3.998 3.998 0 0 0 3.34 4.56c1.44.22 10.12 1.51 18.66 1.51 4.91 0 9.79-.43 13.2-1.72 2.06-.78 3.1-3.09 2.31-5.15-.78-2.06-3.1-3.08-5.15-2.32z" fill="#787878" opacity="1" data-original="#787878"></path><path d="M195.16 107.17c-6.42-13.98-13.15-19.74-16.67-21.96-.3-6.28-2.58-22.2-17.51-29.48-4.86-1.55-13.76-2.06-19.3 3.78-4.58-5.69-9.92-7.45-19.94-7.18-7.78.22-12.41 4.88-14.91 9.51-2.48-1.3-5.23-1.64-8.08-.87-10.89 2.95-17.32 9.7-18.72 19.2-.43-.08-.83-.22-1.27-.27-4.2-.47-8.04.7-11 3.42-7.44 6.83-7.28 21.21-7.21 22.27-7.25 63.84.57 77.29 5.76 86.18l1.11 1.96c3.17 5.8 5.13 33.78 5.61 50.06.07 2.16 1.84 3.88 3.99 3.88h.12a3.99 3.99 0 0 0 3.87-4.11c-.13-4.5-1.46-44.28-6.58-53.65l-1.22-2.15c-4.65-7.98-11.68-20.05-4.7-81.81-.07-3.17.61-13.04 4.66-16.74 1.25-1.15 2.7-1.59 4.69-1.36 9.3 1.05 14.38 18.96 15.41 25 .91 7.08.96 18.97-1.83 22-.3.33-.49.39-.77.35q-3.84-.16-5.39-8.53c-.74-3.99-1.75-9.46-3.77-16.48a4.009 4.009 0 0 0-4.95-2.74 4.002 4.002 0 0 0-2.74 4.94c1.91 6.65 2.85 11.69 3.6 15.74 1.63 8.81 2.72 14.63 12.91 15.06 2.61.02 5.14-.9 7-2.93.96-1.05 1.68-2.42 2.29-3.9 1.87.96 4.01 1.79 6.35 1.79 1.02 0 2.06-.15 3.11-.49 3.65-1.21 6.17-4.5 7.64-9.59.39.29.81.48 1.22.72 0 .05-.03.09-.04.14-.05 1-1.2 24.74 12.52 35.18.72.55 1.57.82 2.42.82 1.2 0 2.4-.54 3.18-1.58 1.34-1.75.99-4.26-.76-5.6-8.85-6.74-9.42-22.57-9.39-27.11 3.1-.3 5.87-1.56 8.08-3.03.61 1.49 1.36 2.86 2.38 3.96 1.94 2.09 4.52 3.18 7.47 3.18h.4c6.93-.23 11.26-6.23 13.82-11.88 1.9 2.77 4.34 5.21 7.53 6.62 2.02.89 4.38-.02 5.27-2.05.89-2.02-.02-4.38-2.05-5.27-5.67-2.5-8.34-12.88-8.89-16.67-.16-1.09-.76-2.07-1.66-2.7s-2.02-.86-3.1-.64c-16.26 3.37-29.51-2.72-31.09-6.91 1.3-2.4 13.41-4.61 19.23-5.68 1.97-.36 3.92-.72 5.76-1.09 11.43-2.29 23.86 2.77 24.11 2.87.07.03 7.44 3.16 14.78 19.15 7.22 15.75-3.3 30.37-3.8 31.06-.22.31-21.88 30.91-30.1 41.98-8.87 11.95-9.12 54.01-9.12 58.77a3.99 3.99 0 1 0 7.98 0c0-16.95 2.05-46.59 7.55-54.01 8.28-11.14 29.99-41.82 30.15-42.06.57-.77 13.81-18.97 4.6-39.08zm-88.6 22.89c-1.21.39-3.35-.59-5.07-1.78.74-7.02-.05-14.38-.34-16.6-.4-2.42-3.65-19.82-13.46-27.83.13-7.8 4.41-12.8 13.13-15.16 1.04-.28 1.84-.17 2.64.38 3.56 2.4 5.67 11.28 6.15 15.3.03.22 3.08 21.84.02 39.17-.65 3.65-1.8 6.09-3.08 6.52zm46.2-19.42c.11.46.27.98.41 1.49-1.09 4.89-4.63 14.46-9.26 14.62-.93-.01-1.37-.22-1.75-.63-1.8-1.93-2.33-7.19-1.76-15.27 3.97.39 8.16.35 12.36-.21zm-20.32-1.31c-.27 3.19-.38 6.39-.23 9.41-1.73 1.72-5.03 4.33-8.18 4-1.99-.21-3.86-1.83-5.59-4.67.55-5.63.64-11.28.52-16.36 2.89 3.42 7.68 6.03 13.49 7.62zM118.26 89.7c-.34-3.72-.68-6.11-.71-6.37-.14-1.18-1.2-9.15-4.74-15.32.77-2.52 3.04-7.52 9.15-7.7 9.42-.28 12.08 1.28 15.56 7.17-1.89 6.65-2.01 11.92-1.67 15.35-8.63 1.73-14.54 3.51-17.58 6.87zm29.17-9.07c-1.19.24-2.46.47-3.71.7-.19-2.85-.02-7.35 1.88-13.19 2.52-7.76 11.89-5.12 12.41-5.02 8.52 4.17 11.22 13.04 12.09 18.83-2.44-.66-5.5-1.3-8.88-1.69v-2.45a3.99 3.99 0 1 0-7.98 0v2.14c-1.92.09-3.85.28-5.8.67z" fill="#787878" opacity="1" data-original="#787878"></path></g></g></svg>