<svg xmlns="http://www.w3.org/2000/svg" version="1.1" xmlns:xlink="http://www.w3.org/1999/xlink" width="512" height="512" x="0" y="0" viewBox="0 0 256 300" style="enable-background:new 0 0 512 512" xml:space="preserve" class=""><g><g fill="#787878"><path d="M130.75 209.61c-13.66 2.86-27.18.03-27.32 0-2.16-.46-4.28.91-4.75 3.07-.46 2.16.9 4.28 3.06 4.75.4.09 6.93 1.46 15.74 1.46 4.54 0 9.68-.37 14.91-1.46 2.16-.45 3.55-2.57 3.09-4.73s-2.58-3.51-4.73-3.09z" fill="#787878" opacity="1" data-original="#787878"></path><path d="M178.69 102.45c2.67-4.82 5.12-9.18 6.22-10.99 2.53-4.18 6.98-18.11 2.96-27.77-1.97-4.75-5.7-7.91-10.79-9.14-7.01-1.69-12.56.49-16.72 3.97-1.6-9.21-5.54-20.53-15.23-21.01-8.67-.55-14.04 9.21-16.49 15.13-4.17-1.06-8.84-.29-14.3 1.54-10.41 3.47-10.2 18.55-9.29 26.63-5.31.25-9.55 1.99-12.54 5.28-2.76 3.03-3.88 6.79-4.29 10.15-3.4-1.31-7.61-1.7-12.25.26-9.22 3.91-10.46 13.35-9.82 17.79.04.33.13.65.26.96l1.49 3.6c-6.88 28.27 5.78 70.63 11.35 84.78 3.01 7.65 1.49 36.8-.26 54.53a4.001 4.001 0 0 0 3.58 4.37 4 4 0 0 0 4.37-3.59c.46-4.71 4.41-46.37-.26-58.24-4.51-11.46-13.91-42.18-12.75-67.24l14.53 35.13c.45.8 4.58 7.8 11.94 8.16.19.01.39.01.58.01 4.44 0 8.72-2.64 12.76-7.58.67.15 1.32.38 2.03.38s1.4-.07 2.13-.23c.77-.17 1.43-.48 2.11-.77 1.13 7.78 3.77 15.98 4.21 17.29a4.005 4.005 0 0 0 3.79 2.73c.42 0 .84-.07 1.26-.21 2.1-.7 3.22-2.96 2.53-5.05-2.19-6.56-5.24-18.69-4.14-23.28.01-.04 0-.08 0-.13 1.29-3.32 1.85-6.89 1.91-9.71 0 0-.2-1.69-.56-4.62 2.22.97 4.52 1.36 6.8 1.36 2.54 0 5.05-.46 7.38-1.03 5.26-1.29 7.3-7.11 7.9-13.45 11.19-1.21 17.08-10.97 17.39-11.51.06-.11 2.68-4.91 5.85-10.67 13.27 21.43 5.61 40.21 5.33 40.89-.13.28-13.81 28.44-22.46 41.43-9.46 14.19-4.38 61.07-3.77 66.37a4.004 4.004 0 0 0 3.96 3.54c.16 0 .31-.01.46-.03a4.008 4.008 0 0 0 3.52-4.43c-1.57-13.59-4.18-51.05 2.48-61.02 8.96-13.45 22.44-41.2 23.07-42.54.46-1.04 10.64-25.57-8.25-52.07zm-33.96-56.98c4.69.23 7.98 11.23 8.62 22.09-.62 1.24-1.14 2.43-1.49 3.48l-5.38 13.41c-1.32-7.49-2.99-14.6-5.07-18.97-1.83-3.84-3.75-6.67-5.79-8.75 2.09-5.25 5.97-11.27 9.11-11.26zm-43.91 123.28c-2.87-.12-5.14-3.68-5.19-3.68s-21.62-52.34-21.62-52.34c-.1-1.63 0-6.74 5.07-8.89 4.75-2 8.24.65 9.58 1.94l10.18 46.3c.47 1.24 3.33 8.31 8.05 13.08-2.09 2.44-4.04 3.76-6.07 3.6zm15.41-7.24c-3.14.61-7.84-6.82-9.74-11.7l-10.25-46.78c-.42-2.1-.85-8.29 2.19-11.61 1.66-1.8 4.31-2.71 7.9-2.71.54 0 1.09.02 1.66.06 1.68 1.85 6.36 8.35 8.73 25.05 1.19 8.36 2.16 15.53 2.92 21.28 1.3 9.84 1.96 15.47 1.99 15.47-.08 2.57-1.24 10.04-5.4 10.94zm25.08-23.35c-7.36 1.81-10.79.57-13.84-4.83-.75-5.68-1.68-12.58-2.83-20.64-2.73-19.18-8.45-27-11.21-29.77-1.39-8.06-1.26-19.62 3.43-21.18 9.32-3.11 12.7-2.53 17.34 7.18 2.82 5.93 5 19.09 6.42 30.61-.13.8-.06 1.59.27 2.3.69 5.86 1.19 11.17 1.44 14.53 1.87 11.43.72 21.37-1.03 21.8zm20.24-21.13c-.17.29-3.72 6.17-10.31 7.41-.19-3.79-.66-7.13-.98-9.02-.05-.62-.53-7.01-1.5-15.18l10.6-26.44c.19-.58 4.92-14.15 15.84-11.49 2.61.63 4.29 2.05 5.29 4.44 2.65 6.38-.53 17.45-2.42 20.56-3.13 5.17-16.04 28.82-16.53 29.73z" fill="#787878" opacity="1" data-original="#787878"></path></g></g></svg>