<svg xmlns="http://www.w3.org/2000/svg" version="1.1" xmlns:xlink="http://www.w3.org/1999/xlink" width="512" height="512" x="0" y="0" viewBox="0 0 256 300" style="enable-background:new 0 0 512 512" xml:space="preserve" class=""><g><g fill="#787878"><path d="M146.11 229.26c-11.79 4.31-28.88-.07-29.04-.11-2.15-.53-4.32.72-4.88 2.85s.72 4.32 2.85 4.88c.52.14 8.79 2.27 18.41 2.27 5.08 0 10.52-.59 15.41-2.38 2.08-.76 3.13-3.05 2.38-5.13-.76-2.08-3.04-3.13-5.13-2.38z" fill="#787878" opacity="1" data-original="#787878"></path><path d="M173.19 149.85c-.66-.92-1.35-1.73-2.02-2.59l-12.02-83.22c-.4-2.75-4.22-27.06-15.26-34.8-3.14-2.19-6.7-2.97-10.85-2.06-.18.07-.66.3-1.23.65-4.93-10.24-11.64-11.17-16.82-9.72-10.2 2.85-9.74 18.33-9.65 20.15l3.48 52.37c-2.19-.05-4.39.43-6.52 1.58-6.25 3.38-7.6 10.93-7.66 16.53-1.81-.32-3.84-.38-5.91.18-2.36.63-5.65 2.31-7.97 6.79-4.19 8.11-4.32 31.05-.43 74.36 1.75 19.45 6.61 25.86 10.52 31.01 2.02 2.67 3.63 4.78 4.69 8.53 2.75 9.73 1.99 38.4 1.46 48.62a3.986 3.986 0 0 0 3.78 4.19h.21c2.11 0 3.88-1.66 3.99-3.79.07-1.55 1.92-38.21-1.75-51.2-1.47-5.21-3.78-8.26-6.02-11.2-3.63-4.78-7.38-9.72-8.93-26.89-3.6-40.02-3.74-63.56-.43-69.97 1.17-2.26 2.48-2.62 2.9-2.73 2.15-.6 4.81.6 5.9 1.24 1.67 1.49 5.42 5.74 5.36 9.98-.02 2.57.46 5.67 2.3 8.84.66 1.14 1.62 2.12 2.54 3.12.04.12.03.24.08.36 6.26 13.8 2.82 20.51 2.82 20.51-.05.09-.06.21-.1.3-.05.1-.13.16-.17.26-.08.19-.07.39-.11.59-.04.17-.14.31-.16.48-.19 1.57-.96 3.41-1.56 3.71-.21.09-.93.01-2.1-.66-3.19-1.79-6.87-14.52-8.29-25.29-.29-2.19-2.34-3.78-4.49-3.43-2.19.29-3.72 2.3-3.44 4.48.81 6.16 4.11 26.62 12.31 31.21 2.25 1.27 4.2 1.71 5.83 1.71s2.87-.42 3.84-.92c2.35-1.21 3.7-3.33 4.55-5.32 2.15.59 4.21.98 6.12 1.02-2.21 6.11-3.8 14.85.02 24.18a3.978 3.978 0 0 0 3.69 2.48 3.993 3.993 0 0 0 3.7-5.51c-4.81-11.75 1.99-23 3.03-24.6 1.04-.88 1.9-1.83 2.61-2.83 2.81 3.95 6.52 7.49 11.38 8.87 2.13.64 4.34-.63 4.94-2.74.6-2.12-.63-4.33-2.75-4.94-7.34-2.1-11.83-14.15-12.94-18.61a3.99 3.99 0 0 0-3.37-3c-10.93-1.39-18.18-4.62-21-9.34-.94-1.57-1.23-3.11-1.29-4.43 0-.04.02-.07.03-.11 0-.26-.05-.49-.06-.74.02-.49.07-.93.14-1.31 8.26-2.82 25.11 2.87 34.15 7.34.12.06 10.31 5.93 19.63 17.37.03.05.08.09.11.14.91 1.12 1.82 2.23 2.71 3.46 8.08 11.26 1.62 32.3-3.1 47.67-.72 2.37-1.41 4.6-1.99 6.64-4.61 16.16-2.17 67.62-2.07 69.81a3.99 3.99 0 0 0 3.99 3.8h.19c2.2-.1 3.9-1.98 3.8-4.18-.03-.52-2.49-52.32 1.77-67.22.57-1.99 1.24-4.18 1.95-6.49 5.2-16.97 12.33-40.2 1.95-54.67zM117.13 25.8c2.66-.74 6.08-.17 9.29 10.08-.97 3.5-1.35 8.26-.19 14.99 2.49 14.42 7.22 48.58 8.38 56.97-2.73.14-5.45.56-7.97 1.32l-.1-.39c-1.88-5.07-4.96-11.19-9.5-14.91l-3.72-56.07c-.19-3.76.75-11.14 3.82-12zm13.12 128.09c-.33 1.48-1.29 4.51-3.82 6.01-2.3 1.37-5.38 1.09-8.24.32.63-3.03.86-7.51-.57-13.53 3.25 1.24 6.81 2.3 11.04 2.98.37 1.14.93 2.62 1.59 4.22zm-22.86-35.2a28.963 28.963 0 0 0-4.56-5.96c-.48-4.26-.26-11.59 3.26-13.5 1.84-.99 3.1-.71 3.91-.41 3.13 1.18 6.52 5.94 8.92 12.36l1.75 6.59c-4.72-.56-9.35-.44-13.27.92zm40.58 7.77c-1.54-.77-9.44-4.55-18.59-6.97l-.71-2.69c5.16-1.68 13.92-1.1 19.02-.16a4 4 0 0 0 4.66-3.2c.4-2.17-1.02-4.25-3.19-4.66-.66-.12-3.18-.55-6.47-.82-.74-5.39-5.92-43.05-8.59-58.48-1.86-10.74.84-14.02 1.67-14.74 1.2-.16 2.35.21 3.51 1.02 6.99 4.89 10.99 22.88 11.94 29.4l10.35 71.6c-7.13-6.6-13.1-10.04-13.59-10.31z" fill="#787878" opacity="1" data-original="#787878"></path></g></g></svg>