<svg xmlns="http://www.w3.org/2000/svg" version="1.1" xmlns:xlink="http://www.w3.org/1999/xlink" width="512" height="512" x="0" y="0" viewBox="0 0 256 300" style="enable-background:new 0 0 512 512" xml:space="preserve" class=""><g><g fill="#787878"><path d="M135.62 235.2c-2.81 1.25-13.55 0-21.88-1.85-2.16-.46-4.29.88-4.77 3.03-.49 2.15.87 4.29 3.02 4.77 3.28.74 12.02 2.53 19.18 2.53 3.02 0 5.77-.32 7.69-1.18 2.02-.9 2.93-3.25 2.03-5.27-.89-2.02-3.28-2.93-5.27-2.03z" fill="#787878" opacity="1" data-original="#787878"></path><path d="M178.82 157.38c-.64-.61-1.4-1.35-2.12-2.05l5.57-101.14c.31-3.01 1.55-18.33-4.25-24.75-1.81-2-4.15-3.06-6.78-3.06-6.57 0-11.59 3.78-14.12 10.63-1.66 4.5-1.73 8.95-1.71 8.95s-9.68 82.99-9.68 82.99l-29.19-87.99c-.15-.35-1.55-3.46-4.17-6.18-4.08-4.24-9.02-5.4-13.92-3.26-10.17 4.44-9.01 18.42-6.83 25.56l8.26 44.93c-4.25-.03-8.96 1.2-11.58 5.52-2.97 4.88-2.29 14.84-1.45 21.24-10.54.91-14.11 14.35-14.52 22.08-5.2 55.32 10.93 75.51 17.01 83.11l1.07 1.37c1.99 2.72 2.69 19.19 2.1 32.88a3.986 3.986 0 0 0 3.82 4.16h.17c2.13 0 3.9-1.68 3.99-3.83.31-7.32.99-31.69-3.66-37.97-.34-.46-.76-.99-1.25-1.6-5.52-6.91-20.2-25.27-15.29-77.53.16-3.03 1.89-14.41 7.33-14.76 6.26-.49 8.14 9.39 8.22 9.8l8.23 32.05c.25 3.29-.34 7.26-.93 7.9-3.66-.19-8.83-6.53-12.33-23.75-.45-2.17-2.6-3.57-4.72-3.12a3.997 3.997 0 0 0-3.12 4.71c4.95 24.31 13.47 29.81 19.75 30.13 2.27.07 4.31-.68 5.89-2.29 1.83-1.88 2.71-4.67 3.12-7.37 1.29 15.61 16.01 25.02 16.69 25.44.65.4 1.37.59 2.08.59 1.34 0 2.65-.68 3.4-1.9 1.16-1.88.57-4.34-1.3-5.5-.12-.08-11.58-7.45-12.9-18.7.62-.25 1.24-.5 1.82-.89 7.83-5.31 8.28-13.1 5.38-23.57 4.74.79 9.3 1.11 12.74 1.01 1.53 5.94 5.24 17.43 11.98 22.2 1.78 1.28 4.28.86 5.57-.95 1.28-1.8.85-4.3-.96-5.57-4.64-3.28-8.32-14.46-9.56-20.73-.43-2.15-2.55-3.56-4.64-3.16-7.9 1.47-29.1-2.39-32.27-9.2-.96-2.06-1.19-3.75-.7-5.03.42-1.07 1.31-1.77 1.88-2.12h15.26c4.07 0 7.92-.06 11.13 0 6.5 0 11.08 2.39 12.19 3.03 2.34 2.33 16.42 16.4 23.78 23.46 4.64 4.46 3.73 18.17 2.17 25.38-.07.24-7.93 23.93-16.11 35.26-9.32 12.88-5.96 42.96-5.54 46.35a3.993 3.993 0 0 0 4.45 3.48 3.994 3.994 0 0 0 3.48-4.45c-1.02-8.35-2.25-31.93 4.09-40.7 8.92-12.33 16.9-36.42 17.34-37.83.54-2.46 5.02-24.27-4.34-33.26zm-60.96.68c4.62 13.8 2.38 16.92-1.55 19.27-1.94-.51-4.76-4.35-6.18-7.09l-4.9-19.19c3.05 3.15 7.64 5.41 12.63 7.01zm-7.88-29.39c-.49 0-.97.09-1.43.26-.5.19-4.96 2.01-6.89 6.79-.26.63-.4 1.3-.54 1.96-1.37-2.59-3.32-5.02-5.87-6.73-1.28-7.63-1.7-16.71-.13-19.28 1.32-2.17 5.51-1.78 7.63-1.36 1.89 2.07 7.22 8.67 8.44 18.35h-1.2zm9.14 0c-1.28-12.6-8.05-21.11-10.61-23.86L99.36 55.2c-1.05-3.53-2.9-14.1 2.26-16.36 4.29-1.87 7.42 4.97 7.44 4.97l28.14 84.85h-18.08zm35.7 5.04c-.19-.18-.38-.34-.6-.49-.05-.04-.4-.25-.9-.54l10.03-86.27c0-.49.16-12.05 7.87-12.05.26 0 .49.03.84.43 2.52 2.79 2.83 12.74 2.22 18.77l-5.2 94.33c-7.13-7.03-14.27-14.18-14.27-14.18z" fill="#787878" opacity="1" data-original="#787878"></path></g></g></svg>