<svg xmlns="http://www.w3.org/2000/svg" version="1.1" xmlns:xlink="http://www.w3.org/1999/xlink" width="512" height="512" x="0" y="0" viewBox="0 0 256 300" style="enable-background:new 0 0 512 512" xml:space="preserve" class=""><g><g fill="#787878"><path d="M139.37 243.66c-10.54 1.83-20.02-1.69-20.11-1.72-2.1-.8-4.37.25-5.16 2.31-.78 2.06.24 4.37 2.3 5.16.37.14 7.39 2.79 16.61 2.79 2.46 0 5.07-.19 7.75-.66a3.993 3.993 0 0 0 3.24-4.63c-.39-2.18-2.52-3.65-4.63-3.24z" fill="#787878" opacity="1" data-original="#787878"></path><path d="M172.98 228.87c8.53-22.17 8.17-49.96 7.2-64.56-1.37-20.47-1.39-118.58-1.39-119.64-.03-1.88-.46-11.52-5.7-15.94-2.12-1.78-4.74-2.51-7.55-2.07-11.79 1.8-13.3 12.09-18.91 90.64-.1 0-.2-.02-.3-.02-.84-13.03-4.57-69.36-6.32-77.41-1.67-7.73-3.98-18.31-15.51-16.81-8.99 1.16-11.82 10.57-12.07 16.25l1.4 44.7c-1.97-8.12-3.82-15.45-5.05-19.56l-1.25-4.32c-3.4-11.88-6.92-24.21-17.8-22.82-12.02 1.48-10.5 19.68-10.28 21.82l6.31 51.15c-4.63 1.63-7.33 6.22-8.15 8.82-3.26 7.3-2.5 19.01-1.2 27.89-3.1 24.36 1.46 52.68 13.25 81.96 6.03 14.98 5.49 43.79 5.49 44.08-.05 2.2 1.7 4.03 3.91 4.08h.08c2.17 0 3.95-1.73 3.99-3.9.03-1.25.58-30.74-6.05-47.24-8.12-20.15-12.62-39.72-13.44-57.7 3.55 5.64 8.64 11.52 14.67 11.52.49 0 .99-.04 1.49-.13 2.97-.49 5.37-1.93 6.94-4.16 2.53-3.62 2.45-8.52 1.8-13.19 3.66 1.13 7.46 1.78 11.33 1.68.3.74.76 1.68 1.2 2.6-.36.32-.69.7-.92 1.16-5.34 10.41-.9 34.04-.37 36.7.37 1.9 2.05 3.22 3.91 3.22.26 0 .52-.02.78-.07a3.993 3.993 0 0 0 3.14-4.69c-1.51-7.65-2.91-20.68-1.41-28.12 1.85 2.41 3.98 4.85 6.76 7.15.75.62 1.65.92 2.55.92 1.15 0 2.29-.49 3.08-1.45a3.985 3.985 0 0 0-.53-5.62c-8.87-7.34-11.55-16.96-11.58-17.06a4.004 4.004 0 0 0-4.42-2.93c-12.14 1.68-24.72-6.82-31.3-15.49-.99-1.3-1.43-2.41-1.22-3.05.28-.88 1.78-1.83 3.01-2.34 4.22.49 21.34 2.42 29.2 2 5.22-.18 10.46 4.84 12.4 7.26l21.88 21.09c1.57 1.53 4.11 1.49 5.65-.11 1.53-1.58 1.48-4.11-.11-5.65l-21.49-20.64c-.3-.39-6.69-8.47-15.55-9.73 8.72-3.09 20.81-5.82 30.4-2.14 2.06.81 4.37-.23 5.17-2.29a4.01 4.01 0 0 0-2.3-5.17c-1.07-.41-2.16-.72-3.25-1.02 4.65-65.21 6.73-83.1 12.19-83.94.62-.09.89.04 1.18.28 1.84 1.55 2.8 6.87 2.87 9.9 0 4.05.01 99.37 1.4 120.11.93 13.94 1.29 40.42-6.7 61.16-7.31 19.02-.44 46.89-.14 48.07a3.998 3.998 0 0 0 4.84 2.9c2.14-.54 3.44-2.71 2.9-4.84-.07-.27-6.55-26.61-.14-43.25zM125.54 30.98c3.61-.44 4.65 1.22 6.8 11.13 1.32 6.1 4.66 54.62 6.02 75.5-5.51.64-10.82 2.03-15.35 3.56l-2.57-81.79c0-.08.48-7.8 5.11-8.4zM90.73 45.23c3.96-.44 6.11 6.46 9.14 17.08l1.28 4.4c3.47 11.66 12.5 51.48 13.87 57.57-3.36 1.48-5.53 2.66-5.83 2.83-.55.31-.97.75-1.31 1.23-.82-.07-1.63-.13-2.43-.2-1.56-9.19-5.62-15.41-11.58-17.61l-6.45-52.3c-.43-4.2.13-12.61 3.31-13zm9.09 113.27.07.36c.7 3.69 1.87 9.86.35 12.02-.13.2-.46.66-1.68.87-.08 0-.17.01-.27.01-3.16 0-8.96-8.31-12.01-15.54-.6-2.49-1.45-6.73-2.08-11.49.09.13.13.24.22.37 3.84 5.06 9.2 9.89 15.39 13.39zm-8.8-31.53c-.6.17-5 1.58-7.6 5.08.08-3.9.52-7.51 1.67-10.1.01-.05 1.59-4.77 4.63-4.27 4.36.57 6.43 5.39 7.44 9.67-2.69-.28-4.5-.49-4.56-.5-.53-.07-1.07-.03-1.58.13z" fill="#787878" opacity="1" data-original="#787878"></path></g></g></svg>