<svg xmlns="http://www.w3.org/2000/svg" version="1.1" xmlns:xlink="http://www.w3.org/1999/xlink" width="512" height="512" x="0" y="0" viewBox="0 0 256 300" style="enable-background:new 0 0 512 512" xml:space="preserve"><g><g fill="#787878"><path d="M157.68 201.4c-4.28.79-11.38 1.33-13.58.31-1.99-.93-4.37-.05-5.31 1.95-.93 2-.05 4.38 1.95 5.31 2.12.98 5.08 1.3 8.02 1.3 4.55 0 9.06-.76 10.35-.99a4.01 4.01 0 0 0 3.22-4.65 4.015 4.015 0 0 0-4.65-3.22z" fill="#787878" opacity="1" data-original="#787878"></path><path d="M185.3 155.38c-7.36-15.99-27.67-60.24-30.84-67.16.61-10.15 1.41-38.53-8.15-44.65-9.38-6-27.06-7.83-27.59-7.88-.48-.08-11.21-1.63-18.56 7.32-5.77 7.03-11.21 12.42-11.26 12.47-.83.82-1.25 1.95-1.18 3.1.04.57.51 5.62 5.45 8.28 5.15 2.77 12.49 1.61 22.42-3.57 1.94 1.81 4.95 4.12 8.61 5.31-1.25 3.46-2.61 8.31-2.75 13.31-7.63-.97-22.27-2.58-30.14-1.79-11.53 1.16-18.17 9.35-18.82 23.04-2.12.34-4.67 1.17-6.86 3.11-1.97 1.74-4.31 5.03-4.31 10.83 0 7.27 1.98 14.34 3.72 19.16-.41 4.49-1.44 24.79 12.26 33.79 8 5.27 17.54 10.61 26.21 10.61 1.94 0 3.83-.3 5.66-.9 5.44 10.95 16.4 22.86 19.51 26.13 1.69 9.66-1.37 42.03-2.74 54.11-.25 2.19 1.33 4.17 3.52 4.43.16.01.31.02.46.02 2 0 3.73-1.5 3.96-3.54.54-4.76 5.21-46.81 2.33-57.97-.17-.68-.52-1.3-1.02-1.8-.16-.16-15.97-16.33-20.29-28.11-1.16-3.14-2.94-14.01-4.15-22.5 1.26-.16 2.51-.34 3.61-.52 2.13 3.41 6.41 9.45 12.43 13.64-.13 3.47.1 9.79 2.78 15.18a3.976 3.976 0 0 0 3.58 2.22c.6 0 1.21-.13 1.78-.42a3.988 3.988 0 0 0 1.8-5.35c-2.75-5.53-1.82-13.13-1.81-13.2.2-1.6-.57-3.17-1.96-3.98-7.87-4.53-12.93-14.23-12.98-14.33-.81-1.57-2.57-2.41-4.3-2.1-16.84 3.22-27.51 1.33-29-2.07-1.32-3.02 3.66-6.22 5.08-7.05 2.49-.57 12.24-2.84 17.62-4.78 3.02-1.1 11.46 1.37 15.73 3.12l23.27 13.74c1.9 1.11 4.35.48 5.47-1.41 1.12-1.9.49-4.35-1.41-5.47l-23.75-13.98c-2.45-1.03-14.98-6.04-22.01-3.52-1.48.53-3.38 1.1-5.37 1.66 1.16-8.42.4-18.5.28-19.94-.18-2.19-2.15-3.86-4.31-3.65a3.993 3.993 0 0 0-3.64 4.32c.34 4.15.76 15.24-.86 21.46-1.93.46-3.29.77-3.33.78-.32.07-.63.18-.93.33-1.82.91-4.1 2.47-6.04 4.49-1.13-2.92-2.54-10.24-2.06-25.6.48-14.9 8.92-15.75 11.69-16.03 6.21-.62 17.64.49 25.3 1.4-4.73 3.42-9.11 8.52-11.76 16.22-.72 2.09.39 4.36 2.48 5.08.43.15.87.22 1.3.22a4 4 0 0 0 3.78-2.69c5.57-16.16 19.7-16.73 21.65-16.73h.34a3.996 3.996 0 0 0 .16-7.99c-1.61-.08-3.63.11-5.81.54-.58-7.9 3.88-16.86 3.93-16.95.66-1.3.57-2.86-.25-4.07-.83-1.21-2.25-1.85-3.69-1.74-3.99.43-8.69-3.88-10.07-5.56-1.24-1.5-3.4-1.9-5.07-.95-11.91 6.75-16.29 5.56-17.36 5.02-.3-.15-.53-.34-.72-.54 2.16-2.24 5.98-6.33 10.02-11.25 4.4-5.37 10.91-4.53 11.36-4.47 4.58.46 17.85 2.56 24.3 6.69 3.99 2.56 5.51 21.92 4.42 38.4a4 4 0 0 0 .35 1.93s23.28 50.71 31.27 68.08c7.55 16.43 8.66 42 8.67 42.1v58.2c0 2.21 1.78 3.99 3.99 3.99s3.99-1.78 3.99-3.99v-58.36c-.04-1.11-1.17-27.4-9.4-45.28zm-103.62 8.01c-4.81-3.16-7.06-8.73-8.07-14 6.8 7.19 18.62 17.33 31.92 18.66.3 1.53.59 2.93.89 4.19-5.31 1.54-13.27-1.31-24.74-8.85zm-2.33-20.59c3.22 7.39 13.72 8.8 23.43 8.41.32 2.29.77 5.3 1.29 8.57-15.68-3.09-29.62-21.59-29.71-21.59-.1-.22-5.07-10.7-5.07-21.07 0-2.25.54-3.87 1.59-4.82.42-.38.93-.64 1.46-.84.19 21.26 4.42 24.78 5.92 26.01.09.07.2.08.29.14-.16 1.64 0 3.37.8 5.2z" fill="#787878" opacity="1" data-original="#787878"></path></g></g></svg>