<svg xmlns="http://www.w3.org/2000/svg" version="1.1" xmlns:xlink="http://www.w3.org/1999/xlink" width="512" height="512" x="0" y="0" viewBox="0 0 256 300" style="enable-background:new 0 0 512 512" xml:space="preserve" class=""><g><g fill="#787878"><path d="M133.03 215.81c-7.45 2.54-22.15.75-27.18-.15a3.995 3.995 0 0 0-1.42 7.86c.54.1 8.94 1.58 17.76 1.58 4.74 0 9.6-.43 13.42-1.73 2.09-.72 3.2-2.99 2.49-5.08-.71-2.08-2.97-3.19-5.08-2.49z" fill="#787878" opacity="1" data-original="#787878" class=""></path><path d="M219.34 77.06c-.25-.3-6.14-7.56-15.85-6.19-11.75 1.69-22.96 15.44-33.36 40.93-.99 2.56-2.34 5.22-3.5 7.03-3.01-8.61-10.31-26.56-20.38-31.73-.84-.36-8.36-3.41-15.42-.14-2.68 1.24-4.8 3.26-6.46 5.88-3.83-2.3-8.81-3.29-14.8-2.62-7.38.86-11.04 8-12.53 11.94-3.12-1.72-6.89-3.08-10.13-2.08-1.43.43-2.75 1.23-3.97 2.25-6.65-20.34-21.29-47.69-22.12-49.21-2.5-4.01-11.3-16.71-19.76-12.04-6.98 3.88-5.61 13.02-3.81 17.47l9.51 31.66c.09.19 9.18 20.07 16.03 63.38 6.14 38.77 16.38 51.93 19.97 55.46 1.68 7.39 1.49 30.53.9 44.95a4 4 0 0 0 3.84 4.15h.16c2.13 0 3.9-1.68 3.99-3.84.16-3.99 1.48-39.28-1.54-48.67-.24-.73-.75-1.43-1.34-1.93-.12-.09-11.49-9.81-18.08-51.39-7.06-44.6-16.3-64.68-16.48-64.97L44.8 55.91c-.67-1.71-1.87-6.74.07-7.84 1.78-.15 5.87 3.99 9.05 9.04.19.36 19.01 35.5 23.41 54.69-.59 2.23-.9 4.61-.79 7.05.34 7.09 6.8 45.18 13.02 56.27 3.25 5.81 7.39 7.11 10.43 7.11.15 0 .3 0 .44-.01 4.04-.16 7.65-2.67 10-5.3 1.07.3 2.24.53 3.63.53 1.05 0 2.19-.11 3.43-.36.7-.14 1.27-.42 1.91-.63 2.26 9.54 12.37 15.9 12.85 16.18a3.995 3.995 0 0 0 5.48-1.33c1.15-1.87.56-4.34-1.31-5.49-2.59-1.6-9.35-7.01-9.55-12.8-.02-.47-.14-.9-.31-1.32 1.38-1.63 2.41-3.44 3.18-5.31 2.31 1.52 5.19 2.28 8.61 1.35 8.22-2.24 11.72-20.66 13.08-34.05l3.26-.78a4.019 4.019 0 0 0 2.96-4.82c-.52-2.14-2.69-3.49-4.82-2.96l-.76.18c.11-2.29.15-4.09.13-5-.05-2.2-1.57-4.18-4.09-3.9-2.2.05-3.95 1.88-3.9 4.09.07 2.93-.04 6.03-.28 9.17-.03.13-.02.26-.03.39-1.13 13.98-4.9 28.43-7.65 29.96-2.72.69-4.11-2.28-4.6-3.55l-1.88-56.71c.97-2.81 2.41-4.63 4.4-5.56 3.82-1.8 8.66.1 8.7.1 7.06 3.64 14.52 21.06 17.56 31.19.25.82.75 1.54 1.43 2.05 1.6 1.19 3.54 1.52 5.39.99 4.94-1.43 8.61-9.33 10.33-13.83 12.03-29.51 22.06-35.19 26.97-35.94 2.85-.46 5.19.59 6.68 1.62-5.02 9.5-19.47 38.21-18.89 52.53.57 14.04-8.13 26.27-8.12 26.27-.74.94-18.21 23.11-24.38 33.83-6.43 11.17-6.91 57.62-6.94 62.88-.01 2.2 1.76 4 3.97 4.02h.02a3.99 3.99 0 0 0 3.99-3.97c.13-19.05 1.83-51.9 5.88-58.94 5.88-10.21 23.55-32.63 23.83-32.98.43-.58 10.43-14.54 9.74-31.42-.49-11.96 13.84-40.97 19.41-51.14a4.01 4.01 0 0 0-.38-4.41zM100.1 174.25h-.08c-1.19 0-2.36-1.02-3.49-3.02-5.33-9.49-11.71-46.61-12-52.74-.27-5.54 2.65-10.14 4.67-10.75 1.15-.15 4.55 1.55 7.39 3.69l4.57 52.67c.03.56.33 4.57 2.72 8.09-1.07 1.03-2.48 2.01-3.78 2.07zm15.8-4.99c-2.96.61-4.13-.28-4.52-.57-1.66-1.27-2.17-4.05-2.25-5.14l-4.99-57.51c.73-2.42 2.95-7.49 6.36-7.89 3.11-.36 8.39-.32 11.32 2.78l1.87 56.33c0 .42-.21 10.45-7.79 11.98z" fill="#787878" opacity="1" data-original="#787878" class=""></path></g></g></svg>