<svg xmlns="http://www.w3.org/2000/svg" version="1.1" xmlns:xlink="http://www.w3.org/1999/xlink" width="512" height="512" x="0" y="0" viewBox="0 0 256 300" style="enable-background:new 0 0 512 512" xml:space="preserve"><g><g fill="#787878"><path d="M125.8 228.15c-5.06 2.84-18.04 1.26-25.03-.4-2.13-.52-4.3.81-4.81 2.96-.51 2.14.81 4.3 2.96 4.81 1.37.32 9.51 2.19 17.71 2.19 4.79 0 9.61-.64 13.08-2.59 1.93-1.08 2.61-3.52 1.53-5.44s-3.52-2.6-5.44-1.53z" fill="#787878" opacity="1" data-original="#787878"></path><path d="M193.75 148.13c-6.67-11.39-16.47-22.93-18.17-24.89-1.02-1.6-4.3-5.3-12.25-5.73l4.33-75c0-5.51-2.1-15.05-10.02-15.84-4.24-.44-8.01.73-10.88 3.36-2.66 2.45-4.3 5.96-4.72 10.17-.19 1.95-1.4 7.52-2.78 13.97-2.47 11.44-5.68 26.38-6.78 36.85-.45-.06-.87-.18-1.35-.2-13.69-.54-19.3 6.46-21.65 12.08a23.97 23.97 0 0 0-8.82-.61c-8.01.92-13.98 7.8-16.52 13.37-4.83-1.14-9.84-.68-14.4 1.56-12.07 5.93-10.64 30.07-9.59 47.69.25 4.23.48 7.86.41 10.31-.31 11.11 5.69 27.93 10.07 40.22l1.38 3.88c3.21 9.12 2.55 39.13 2.02 49.93-.1 2.2 1.6 4.08 3.8 4.19h.19a3.99 3.99 0 0 0 3.99-3.8c.2-4.13 1.84-40.72-2.47-52.97l-1.39-3.91c-3.93-11.03-9.88-27.71-9.61-37.31.07-2.61-.15-6.49-.42-11.01-.7-11.83-2.16-36.45 5.14-40.04 3.47-1.7 7.2-1.88 10.78-.53.2.08.38.23.58.32.32.23.64.44 1.02.56 4.63 2.4 8.68 7.18 11.46 13.94 5.22 12.69 2.37 26.55 1.43 30.32-1.1.9-3.46 2.46-5.61 1.46-2.22-1.57-5.99-13.42-8.08-25.35-.38-2.18-2.51-3.67-4.62-3.25a3.998 3.998 0 0 0-3.25 4.62c1.81 10.38 5.85 28.24 12.57 31.21 6.58 2.93 12.81-1 15.44-3.79.42-.44.72-.98.91-1.56.04-.12.2-.73.42-1.57 1.87.85 3.99 1.58 6.34 1.58.47 0 .95-.02 1.43-.08 1.77-.22 3.4-.86 4.86-1.85 1.54 1.25 3.2 2.01 4.89 2.54-5.71 7.52-7.33 16.21-7.41 16.71-.37 2.17 1.09 4.22 3.26 4.61a4.002 4.002 0 0 0 4.62-3.25c.03-.13 2.41-12.91 11.52-18.41 2.37-.79 6.93-4.33 12.7-22.89 1.26.05 2.52.11 3.87.11 1.87 4.01 5.96 11.28 12.32 14.59 1.93 1 4.36.27 5.39-1.7 1.02-1.96.25-4.37-1.7-5.39-4.9-2.55-8.62-10.21-9.64-12.95-.6-1.6-2.04-2.6-3.88-2.6-17.3.54-22.57-3.31-24.21-5.69-1.02-1.49-1.1-3.11-.96-4.28 4.77-1.15 16.26-3.87 26.68-5.81 9.72-1.82 12.25 1.28 12.33 1.32.16.33.36.64.6.91.11.12 10.75 12.37 17.53 23.95 4.77 8.15-1.82 22.35-4.57 26.85-.16.22-16.85 22.51-25.71 30.15-10.16 8.76-10.95 51.7-11 60.23-.01 2.2 1.76 4 3.97 4.02h.02a3.99 3.99 0 0 0 3.99-3.97c.13-19.67 2.77-49.51 8.24-54.22 9.52-8.21 26.19-30.48 27.09-31.72.54-.87 13.04-21.41 4.87-35.37zm-80.6 16.19c-1.76.26-3.89-.82-5.4-1.79.79-7.12.79-17.11-3.24-26.91-3.11-7.55-7.67-13.3-13.07-16.82 1.43-3 5.03-8 10.15-8.58 2.45-.29 7.09-.26 11.11 2.98 3.55 2.87 5.66 7.49 6.27 13.76 1.6 16.26 1.67 28.53-3.15 35.5-1.05 1.51-2.02 1.79-2.66 1.87zm27.23-15.4c-2.58 7.76-5.66 14.67-7.3 16.13-.13.04-.26.08-.39.13-.23.09-5.06 1.94-8.69-.99 2.72-5.29 3.84-11.82 3.93-19.78 3.04 2.17 7.2 3.64 12.46 4.5zm-13.72-24.6c-1.36-9.34-5.53-14.59-8.94-17.34-.26-.21-.56-.34-.83-.54 2.09-5.28 6.72-7.97 13.9-7.64 7.48.33 10.06 14.19 10.67 22.1-6.81 1.49-12.51 2.86-14.8 3.42zm22.7-5.1c-.58-6.78-2.56-18.53-9.14-24.58.62-9.71 4.19-26.36 6.87-38.79 1.56-7.24 2.69-12.46 2.93-14.86.22-2.22.97-3.97 2.17-5.07 1.15-1.06 2.69-1.5 4.68-1.3 1.69.17 2.8 4.8 2.83 7.66l-4.39 75.8c-.13.02-.24.02-.38.05-1.85.34-3.72.71-5.59 1.09z" fill="#787878" opacity="1" data-original="#787878"></path><path d="M64.33 83H93.9l-4.48 7.71 27.24-11.13-27.24-11.13 4.48 7.71H73.72l45.14-37.92c1.1-.93 1.51-2.44 1.02-3.79s-1.78-2.25-3.22-2.25H68.98c-1.89 0-3.43 1.53-3.43 3.42s1.54 3.42 3.43 3.42h38.28L62.12 76.96c-1.1.93-1.51 2.44-1.02 3.79S62.88 83 64.32 83z" fill="#787878" opacity="1" data-original="#787878"></path></g></g></svg>